<svg xmlns="http://www.w3.org/2000/svg">
<symbol id="alert" viewBox="0 0 172 172"><g fill="none" fill-rule="nonzero" stroke="none" stroke-width="1" stroke-linecap="butt" stroke-linejoin="miter" stroke-miterlimit="10" stroke-dasharray="" stroke-dashoffset="0" font-family="none" font-weight="none" font-size="none" text-anchor="none" style="mix-blend-mode: normal"><path d="M0,172v-172h172v172z" fill="none"/><g fill="#000015"><path d="M86,102.125c-8.88135,0 -16.125,-7.24365 -16.125,-16.125c0,-8.88135 7.24365,-16.125 16.125,-16.125c8.88135,0 16.125,7.24365 16.125,16.125c0,8.88135 -7.24365,16.125 -16.125,16.125zM86,80.625c-2.96045,0 -5.375,2.41455 -5.375,5.375c0,2.96045 2.41455,5.375 5.375,5.375c2.96045,0 5.375,-2.41455 5.375,-5.375c0,-2.96045 -2.41455,-5.375 -5.375,-5.375zM40.39648,139.2041l-3.80029,-3.8003c-27.25293,-27.23193 -27.25293,-71.57568 0,-98.80761l3.80029,-3.80029l26.60205,26.60205l-3.80029,3.8003c-6.08887,6.08886 -9.44824,14.19336 -9.44824,22.80176c0,8.6084 3.35938,16.71289 9.44824,22.80176l3.80029,3.80029zM40.56445,48.16504c-18.22461,21.83594 -18.22461,53.83398 0,75.66992l11.46387,-11.46387c-5.85791,-7.5166 -9.02832,-16.6919 -9.02832,-26.37109c0,-9.6792 3.17041,-18.85449 9.02832,-26.37109zM131.60352,139.2041l-26.60205,-26.60205l3.8003,-3.80029c12.57666,-12.57666 12.57666,-33.02686 0,-45.60352l-3.8003,-3.8003l26.60205,-26.60205l3.80029,3.80029c27.25293,27.23193 27.25293,71.57568 0,98.80761zM119.97168,112.37109l11.46386,11.46387c18.22461,-21.83594 18.22461,-53.83398 0,-75.66992l-11.46386,11.46386c12.00977,15.45313 12.00977,37.28906 0,52.74219z"/></g></g> </symbol>
<symbol id="attend" viewBox="0 0 172 172"><g fill="none" fill-rule="nonzero" stroke="none" stroke-width="1" stroke-linecap="butt" stroke-linejoin="miter" stroke-miterlimit="10" stroke-dasharray="" stroke-dashoffset="0" font-family="none" font-weight="none" font-size="none" text-anchor="none" style="mix-blend-mode: normal"><path d="M0,172v-172h172v172z" fill="none"/><g fill="#ecf0f1"><path d="M69.875,21.5c-11.8208,0 -21.5,9.6792 -21.5,21.5c0,5.98389 2.56153,11.37989 6.55078,15.28516c-7.15967,4.8501 -11.92578,13.12256 -11.92578,22.33984h10.75c0,-8.90234 7.22266,-16.125 16.125,-16.125c8.90234,0 16.125,7.22266 16.125,16.125h10.75c0,-9.21729 -4.76611,-17.48974 -11.92578,-22.33984c3.98926,-3.90527 6.55078,-9.30127 6.55078,-15.28516c0,-11.8208 -9.6792,-21.5 -21.5,-21.5zM69.875,32.25c6.00489,0 10.75,4.74512 10.75,10.75c0,6.00489 -4.74511,10.75 -10.75,10.75c-6.00488,0 -10.75,-4.74511 -10.75,-10.75c0,-6.00488 4.74512,-10.75 10.75,-10.75zM123.625,64.5c-8.83935,0 -16.125,7.28565 -16.125,16.125h10.75c0,-2.98144 2.39356,-5.375 5.375,-5.375c2.98145,0 5.375,2.39356 5.375,5.375h10.75c0,-8.83935 -7.28565,-16.125 -16.125,-16.125zM21.5,86v10.75h5.375v53.75h118.25v-53.75h5.375v-10.75zM37.625,96.75h96.75v43h-96.75z"/></g></g> </symbol>
<symbol id="back" viewBox="0 0 172 172"><g fill="none" fill-rule="nonzero" stroke="none" stroke-width="1" stroke-linecap="butt" stroke-linejoin="miter" stroke-miterlimit="10" stroke-dasharray="" stroke-dashoffset="0" font-family="none" font-weight="none" font-size="none" text-anchor="none" style="mix-blend-mode: normal"><path d="M0,172v-172h172v172z" fill="none"/><g fill="#666666"><path d="M102.29297,23.01172l-59.125,59.125l-3.69531,3.86328l3.69531,3.86328l59.125,59.125l7.72656,-7.72656l-55.26172,-55.26172l55.26172,-55.26172z"/></g></g></symbol>
<symbol id="c-18" viewBox="0 0 172 172"><g fill="none" fill-rule="nonzero" stroke="none" stroke-width="1" stroke-linecap="butt" stroke-linejoin="miter" stroke-miterlimit="10" stroke-dasharray="" stroke-dashoffset="0" font-family="none" font-weight="none" font-size="none" text-anchor="none" style="mix-blend-mode: normal"><path d="M0,172v-172h172v172z" fill="none"/><g fill="#333333"><path d="M48.375,26.875v5.375h-21.5v5.375v112.875h118.25v-118.25h-21.5v-5.375h-10.75v5.375h-53.75v-5.375zM37.625,43h10.75v5.375h10.75v-5.375h53.75v5.375h10.75v-5.375h10.75v10.75h-96.75zM37.625,64.5h96.75v75.25h-96.75zM48.375,80.625v16.125h10.75v-16.125zM76.78271,80.625l-1.5957,2.35156c0,0 -2.36851,3.02344 -5.31201,3.02344v10.75c2.35335,0 3.58964,-1.2183 5.375,-1.96313v28.83813h10.75v-43zM110.1875,80.625c-7.35871,0 -13.4375,6.07879 -13.4375,13.4375c0,3.12981 1.53982,5.76498 3.36987,8.0625c-1.83005,2.29752 -3.36987,4.93269 -3.36987,8.0625c0,7.35871 6.07879,13.4375 13.4375,13.4375c7.35871,0 13.4375,-6.07879 13.4375,-13.4375c0,-3.12981 -1.53982,-5.76498 -3.36987,-8.0625c1.83005,-2.29752 3.36987,-4.93269 3.36987,-8.0625c0,-7.35871 -6.07879,-13.4375 -13.4375,-13.4375zM110.1875,91.375c1.54229,0 2.6875,1.14521 2.6875,2.6875c0,1.54229 -1.14521,2.6875 -2.6875,2.6875c-1.54229,0 -2.6875,-1.14521 -2.6875,-2.6875c0,-1.54229 1.14521,-2.6875 2.6875,-2.6875zM110.1875,107.5c1.54229,0 2.6875,1.14521 2.6875,2.6875c0,1.54229 -1.14521,2.6875 -2.6875,2.6875c-1.54229,0 -2.6875,-1.14521 -2.6875,-2.6875c0,-1.54229 1.14521,-2.6875 2.6875,-2.6875z"/></g></g> </symbol>
<symbol id="c-19" viewBox="0 0 172 172"><g fill="none" fill-rule="nonzero" stroke="none" stroke-width="1" stroke-linecap="butt" stroke-linejoin="miter" stroke-miterlimit="10" stroke-dasharray="" stroke-dashoffset="0" font-family="none" font-weight="none" font-size="none" text-anchor="none" style="mix-blend-mode: normal"><path d="M0,172v-172h172v172z" fill="none"/><g fill="#333333"><path d="M129,150.5h-86c-11.87517,0 -21.5,-9.62483 -21.5,-21.5v-86h129v86c0,11.87517 -9.62483,21.5 -21.5,21.5z" opacity="0.35"/><path d="M129,21.5h-86c-11.87517,0 -21.5,9.62483 -21.5,21.5v7.16667h129v-7.16667c0,-11.87517 -9.62483,-21.5 -21.5,-21.5z"/><path d="M48.375,91.375c-2.967,0 -5.375,-2.408 -5.375,-5.375v-8.95833c0,-2.967 2.408,-5.375 5.375,-5.375c2.967,0 5.375,2.408 5.375,5.375v8.95833c0,2.967 -2.408,5.375 -5.375,5.375z"/><path d="M105.307,104.834c-2.1715,0 -12.97883,-0.65933 -12.97883,-15.8885c0,-3.66217 1.42617,-17.27883 16.168,-17.27883c14.74183,0 16.02467,13.55217 16.02467,17.27883c0,7.48917 -2.95983,12.84267 -4.15667,15.05717l-7.81167,14.878c-0.96033,1.81317 -2.838,2.95267 -4.88767,2.95267v0c-4.20683,0 -6.86567,-4.515 -4.83033,-8.1915l5.10983,-9.2235l-0.0645,-0.0645c-0.24367,0.13617 -2.16433,0.48017 -2.57283,0.48017zM103.01367,89.08883c0,2.408 0.774,7.9765 5.33917,7.9765c4.56517,0 5.4825,-5.61867 5.4825,-7.9765c0,-2.35783 -0.93883,-7.912 -5.40367,-7.912c-4.472,-0.00717 -5.418,5.55417 -5.418,7.912z"/><path d="M71.66667,116.272v-31.41867l-2.9885,2.25033c-2.40083,1.81317 -5.84083,1.10367 -7.33867,-1.505v0c-1.26133,-2.20733 -0.6665,-5.00233 1.38317,-6.50733l8.17,-5.98417c1.29,-0.93167 2.83083,-1.4405 4.42183,-1.4405v0c4.128,0 7.47483,3.34683 7.47483,7.47483v37.12333c0,3.0745 -2.494,5.56133 -5.56133,5.56133v0c-3.06733,0.00717 -5.56133,-2.48683 -5.56133,-5.55417z"/></g></g> </symbol>
<symbol id="c-20" viewBox="0 0 172 172"><g fill="none" fill-rule="nonzero" stroke="none" stroke-width="1" stroke-linecap="butt" stroke-linejoin="miter" stroke-miterlimit="10" stroke-dasharray="" stroke-dashoffset="0" font-family="none" font-weight="none" font-size="none" text-anchor="none" style="mix-blend-mode: normal"><path d="M0,172v-172h172v172z" fill="none"/><g fill="#333333"><path d="M129,150.5h-86c-11.87517,0 -21.5,-9.62483 -21.5,-21.5v-86h129v86c0,11.87517 -9.62483,21.5 -21.5,21.5z" opacity="0.35"/><path d="M129,21.5h-86c-11.87517,0 -21.5,9.62483 -21.5,21.5v7.16667h129v-7.16667c0,-11.87517 -9.62483,-21.5 -21.5,-21.5z"/><path d="M87.032,86.24367c0,8.686 -5.92683,13.49483 -16.512,26.015h11.10117c2.6445,0 4.78733,2.14283 4.78733,4.78733v0c0,2.6445 -2.14283,4.78733 -4.78733,4.78733h-17.09967c-3.97033,0 -7.18817,-3.21783 -7.18817,-7.18817v0c0,-1.72 0.61633,-3.38983 1.73433,-4.687c12.169,-14.1255 17.06383,-18.189 17.06383,-23.57833c0,-1.42617 -0.29383,-5.203 -4.15667,-5.203c-2.20733,0 -3.44,1.40467 -4.128,2.99567c-0.86717,2.01383 -2.98133,3.182 -5.16,2.98133v0c-3.4615,-0.3225 -5.74767,-3.956 -4.30717,-7.1165c1.94933,-4.29283 5.90533,-8.37067 13.93917,-8.37067c11.76767,0 14.71317,8.80783 14.71317,14.577z"/><path d="M126.75683,97.19433c0,2.7735 0.48733,25.52767 -16.11783,25.52767c-16.60517,0 -16.05333,-22.76133 -16.05333,-25.52767c0,-2.76633 -0.3225,-25.52767 16.05333,-25.52767c16.37583,0 16.11783,22.76133 16.11783,25.52767zM115.6915,97.19433c0,-1.6125 0.387,-15.77383 -5.0525,-15.77383c-5.4395,0 -5.04533,14.16133 -5.04533,15.77383c0,1.66267 -0.15767,15.77383 5.04533,15.77383c5.21017,0.00717 5.0525,-14.11117 5.0525,-15.77383z"/><path d="M44.71283,91.375c-2.967,0 -5.375,-2.408 -5.375,-5.375v-8.95833c0,-2.967 2.408,-5.375 5.375,-5.375c2.967,0 5.375,2.408 5.375,5.375v8.95833c0,2.967 -2.408,5.375 -5.375,5.375z"/></g></g></symbol>
<symbol id="c-21" viewBox="0 0 172 172"><g fill="none" fill-rule="nonzero" stroke="none" stroke-width="1" stroke-linecap="butt" stroke-linejoin="miter" stroke-miterlimit="10" stroke-dasharray="" stroke-dashoffset="0" font-family="none" font-weight="none" font-size="none" text-anchor="none" style="mix-blend-mode: normal"><path d="M0,172v-172h172v172z" fill="none"/><g fill="#333333"><path d="M129,150.5h-86c-11.87517,0 -21.5,-9.62483 -21.5,-21.5v-86h129v86c0,11.87517 -9.62483,21.5 -21.5,21.5z" opacity="0.35"/><path d="M129,21.5h-86c-11.87517,0 -21.5,9.62483 -21.5,21.5v7.16667h129v-7.16667c0,-11.87517 -9.62483,-21.5 -21.5,-21.5z"/><path d="M48.375,91.375c-2.967,0 -5.375,-2.408 -5.375,-5.375v-8.95833c0,-2.967 2.408,-5.375 5.375,-5.375c2.967,0 5.375,2.408 5.375,5.375v8.95833c0,2.967 -2.408,5.375 -5.375,5.375z"/><path d="M110.7035,116.272v-31.41867l-2.9885,2.25033c-2.40083,1.81317 -5.84083,1.10367 -7.33867,-1.505v0c-1.26133,-2.20733 -0.6665,-5.00233 1.38317,-6.50733l8.17,-5.98417c1.29,-0.93167 2.838,-1.4405 4.429,-1.4405v0c4.128,0 7.47483,3.34683 7.47483,7.47483v37.12333c0,3.0745 -2.494,5.5685 -5.56133,5.5685v0c-3.0745,0 -5.5685,-2.494 -5.5685,-5.56133z"/><path d="M91.81933,86.24367c0,8.686 -5.92683,13.49483 -16.512,26.015h11.10117c2.6445,0 4.78733,2.14283 4.78733,4.78733v0c0,2.6445 -2.14283,4.78733 -4.78733,4.78733h-17.0925c-3.97033,0 -7.18817,-3.21783 -7.18817,-7.18817v0c0,-1.72 0.61633,-3.38983 1.73433,-4.687c12.169,-14.1255 17.06383,-18.189 17.06383,-23.57833c0,-1.42617 -0.29383,-5.203 -4.15667,-5.203c-2.20733,0 -3.44,1.40467 -4.128,2.99567c-0.86717,2.01383 -2.98133,3.182 -5.16,2.98133v0c-3.4615,-0.3225 -5.74767,-3.956 -4.30717,-7.1165c1.94933,-4.29283 5.90533,-8.37067 13.93917,-8.37067c11.76767,0 14.706,8.80783 14.706,14.577z"/></g></g> </symbol>
<symbol id="chevron-right" viewBox="0 0 172 172"><g fill="none" fill-rule="nonzero" stroke="none" stroke-width="1" stroke-linecap="butt" stroke-linejoin="miter" stroke-miterlimit="10" stroke-dasharray="" stroke-dashoffset="0" font-family="none" font-weight="none" font-size="none" text-anchor="none" style="mix-blend-mode: normal"><path d="M0,172v-172h172v172z" fill="none"/><g fill="#ffffff"><path d="M65.84375,13.94141l-3.86328,3.69531l-19.31641,19.48438l-3.69531,3.69531l3.69531,3.86328l41.32031,41.32031l-41.32031,41.32031l-3.69531,3.86328l3.69531,3.69531l19.31641,19.48438l3.86328,3.69531l3.86328,-3.69531l64.5,-64.5l3.69531,-3.86328l-3.69531,-3.86328l-64.5,-64.5zM65.84375,29.22656l56.77344,56.77344l-56.77344,56.77344l-11.75781,-11.75781l41.32031,-41.15234l3.86328,-3.86328l-3.86328,-3.86328l-41.32031,-41.15234z"/></g></g></symbol>
<symbol id="dashboard" viewBox="0 0 172 172"><g fill="none" fill-rule="nonzero" stroke="none" stroke-width="1" stroke-linecap="butt" stroke-linejoin="miter" stroke-miterlimit="10" stroke-dasharray="" stroke-dashoffset="0" font-family="none" font-weight="none" font-size="none" text-anchor="none" style="mix-blend-mode: normal"><path d="M0,172v-172h172v172z" fill="none"/><g fill="#ecf0f1"><path d="M26.875,26.875v118.25h118.25v-118.25zM37.625,37.625h96.75v96.75h-96.75zM53.75,53.75v26.875h26.875v-26.875zM91.375,53.75v26.875h26.875v-26.875zM53.75,91.375v26.875h26.875v-26.875zM91.375,91.375v26.875h26.875v-26.875z"/></g></g> </symbol>
<symbol id="dying" viewBox="0 0 172 172"><g fill="none" fill-rule="nonzero" stroke="none" stroke-width="1" stroke-linecap="butt" stroke-linejoin="miter" stroke-miterlimit="10" stroke-dasharray="" stroke-dashoffset="0" font-family="none" font-weight="none" font-size="none" text-anchor="none" style="mix-blend-mode: normal"><path d="M0,172v-172h172v172z" fill="none"/><g fill="#333333"><path d="M75.41797,43c-7.26465,0 -14.17236,2.35156 -19.98828,6.71875l-37.12109,28.05078c-8.0625,6.06787 -12.93359,15.62109 -12.93359,25.69922v9.40625h-5.375v10.75h54.25391l23.85156,29.22656l6.71875,8.0625l8.23047,-6.38281l9.91016,-7.72656l8.73438,-6.71875l-7.05469,-8.56641l-6.55078,-7.89453h73.90625v-10.75h-24.1875l12.42969,-4.70312l9.91016,-3.69531l-3.52734,-9.91016l-5.375,-15.28516l-3.86328,-10.75l-10.41406,4.36719l-24.35547,10.07813l-20.66016,-26.875c-6.36182,-8.27246 -16.10401,-13.10156 -26.53906,-13.10156zM75.41797,53.75c6.78174,0 13.52148,3.12842 17.97266,8.90234l25.69922,33.59375l31.91406,-13.4375l5.375,15.28516l-37.625,14.27734c-0.83984,0.31494 -1.63769,0.50391 -2.51953,0.50391c-1.97363,0 -3.94727,-0.88183 -5.375,-2.35156l-28.72266,-29.39453l-30.73828,20.99609h15.11719l29.73047,36.28125l-9.74219,7.55859l-27.21094,-33.08984c0,0 -19.10644,0 -31.91406,0c-3.33838,0 -3.86328,0 -5.87891,0h-5.375v-9.40625c0,-6.76074 3.14942,-13.08057 8.56641,-17.13281l37.28906,-28.05078c4.05224,-3.04443 8.71338,-4.53516 13.4375,-4.53516zM80.79297,95.07031l17.30078,17.80469h-8.73437l-12.42969,-15.11719z"/></g></g></symbol>
<symbol id="employee" viewBox="0 0 172 172"><g fill="none" fill-rule="nonzero" stroke="none" stroke-width="1" stroke-linecap="butt" stroke-linejoin="miter" stroke-miterlimit="10" stroke-dasharray="" stroke-dashoffset="0" font-family="none" font-weight="none" font-size="none" text-anchor="none" style="mix-blend-mode: normal"><path d="M0,172v-172h172v172z" fill="none"/><g fill="#ecf0f1"><path d="M86,21.5c-20.72315,0 -37.625,16.90185 -37.625,37.625c0,12.78662 6.50879,24.10352 16.29297,30.90625c-22.0669,8.6084 -37.79297,30.1084 -37.79297,55.09375h10.75c0,-23.6416 17.15381,-43.39893 39.64063,-47.53516l3.35938,9.91016h10.75l3.35938,-9.91016c22.48682,4.13623 39.64063,23.89356 39.64063,47.53516h10.75c0,-24.98535 -15.72607,-46.48535 -37.79297,-55.09375c9.78418,-6.80273 16.29297,-18.11963 16.29297,-30.90625c0,-20.72315 -16.90185,-37.625 -37.625,-37.625zM86,32.25c14.90723,0 26.875,11.96778 26.875,26.875c0,14.90723 -11.96777,26.875 -26.875,26.875c-14.90722,0 -26.875,-11.96777 -26.875,-26.875c0,-14.90722 11.96778,-26.875 26.875,-26.875zM80.625,112.875l-5.375,32.25h21.5l-5.375,-32.25z"/></g></g></symbol>
<symbol id="exit" viewBox="0 0 172 172"><g fill="none" fill-rule="nonzero" stroke="none" stroke-width="1" stroke-linecap="butt" stroke-linejoin="miter" stroke-miterlimit="10" stroke-dasharray="" stroke-dashoffset="0" font-family="none" font-weight="none" font-size="none" text-anchor="none" style="mix-blend-mode: normal"><path d="M0,172v-172h172v172z" fill="none"/><g fill="#333333"><path d="M26.875,16.125v139.75h96.75v-31.24219l-5.87891,-5.71094l-4.53516,-4.70312h-0.33594v30.90625h-75.25v-118.25h75.25v31.24219l4.87109,-5.03906l5.87891,-5.71094v-31.24219zM125.47266,60.63672l-7.72656,7.72656l12.26172,12.26172h-65.50781v10.75h65.50781l-12.26172,12.26172l7.72656,7.72656l21.5,-21.5l3.69531,-3.86328l-3.69531,-3.86328z"/></g></g> </symbol>
<symbol id="girl" viewBox="0 0 172 172"><g fill="none" fill-rule="nonzero" stroke="none" stroke-width="1" stroke-linecap="butt" stroke-linejoin="miter" stroke-miterlimit="10" stroke-dasharray="" stroke-dashoffset="0" font-family="none" font-weight="none" font-size="none" text-anchor="none" style="mix-blend-mode: normal"><path d="M0,172v-172h172v172z" fill="none"/><g fill="#333333"><path d="M97.42188,21.5c-17.76269,0 -38.50683,2.93945 -54.58984,19.14844c-16.08301,16.20898 -26.70703,44.6377 -26.70703,93.72656v5.375h51.90234c5.31201,3.35938 11.2959,5.375 17.97266,5.375c6.65576,0 12.66065,-2.05761 17.97266,-5.375h51.90234v-5.375c0,-43.67187 -8.44043,-69.03516 -19.48437,-83.81641c-9.72119,-13.01758 -20.91211,-16.62891 -29.22656,-17.46875l-5.03906,-8.90234l-1.51172,-2.6875zM94.39844,32.58594l4.36719,7.72656l1.51172,2.6875h3.19141c5.43799,0 15.30615,1.82666 24.35547,13.94141c8.6084,11.52685 16.22998,33.53076 16.96484,72.05859h-28.89062c0.58789,-0.75586 1.13379,-1.57471 1.67969,-2.35156c7.30664,-10.41406 11.42188,-23.41065 11.42188,-35.27344h-10.75c0,9.25928 -3.46435,20.57617 -9.40625,29.05859c-5.9419,8.48242 -13.89941,13.94141 -22.84375,13.94141c-8.94433,0 -16.90185,-5.43799 -22.84375,-13.94141c-5.9419,-8.50342 -9.40625,-19.8623 -9.40625,-29.05859c0,-2.39355 0.46192,-3.59033 1.17578,-4.53516c0.71387,-0.94482 1.97364,-1.76367 3.86328,-2.51953c3.80029,-1.49072 10.2041,-2.1206 16.96484,-2.6875c6.76074,-0.5669 13.81543,-1.11279 20.15625,-4.03125c6.34082,-2.91846 11.58984,-9.55322 11.58984,-18.47656h-10.75c0,5.60596 -1.46972,7.0127 -5.20703,8.73438c-3.7373,1.72168 -10.12011,2.45654 -16.79687,3.02344c-6.67676,0.5669 -13.71045,0.88184 -19.98828,3.35938c-3.14941,1.23877 -6.17285,3.10742 -8.39844,6.04688c-2.22558,2.93945 -3.35937,6.86572 -3.35937,11.08594c0,11.8208 4.13623,24.67041 11.42188,35.10547c0.58789,0.83984 1.19678,1.70068 1.84766,2.51953h-29.05859c0.81885,-43.73486 10.45606,-67.98535 23.17969,-80.79297c12.47168,-12.57666 28.34473,-15.30615 44.00781,-15.62109zM69.875,91.375c-2.96045,0 -5.375,2.41455 -5.375,5.375c0,2.96045 2.41455,5.375 5.375,5.375c2.96045,0 5.375,-2.41455 5.375,-5.375c0,-2.96045 -2.41455,-5.375 -5.375,-5.375zM102.125,91.375c-2.96045,0 -5.375,2.41455 -5.375,5.375c0,2.96045 2.41455,5.375 5.375,5.375c2.96045,0 5.375,-2.41455 5.375,-5.375c0,-2.96045 -2.41455,-5.375 -5.375,-5.375z"/></g></g> </symbol>
<symbol id="good" viewBox="0 0 172 172"><g fill="none" fill-rule="nonzero" stroke="none" stroke-width="1" stroke-linecap="butt" stroke-linejoin="miter" stroke-miterlimit="10" stroke-dasharray="" stroke-dashoffset="0" font-family="none" font-weight="none" font-size="none" text-anchor="none" style="mix-blend-mode: normal"><path d="M0,172v-172h172v172z" fill="none"/><g fill="#333333"><path d="M86,21.5c-35.56738,0 -64.5,28.93262 -64.5,64.5c0,35.56739 28.93262,64.5 64.5,64.5c35.56739,0 64.5,-28.93261 64.5,-64.5c0,-35.56738 -28.93261,-64.5 -64.5,-64.5zM86,32.25c29.75146,0 53.75,23.99854 53.75,53.75c0,29.75146 -23.99854,53.75 -53.75,53.75c-29.75146,0 -53.75,-23.99854 -53.75,-53.75c0,-29.75146 23.99854,-53.75 53.75,-53.75zM77.60156,43l-1.51172,2.35156c0,0 -4.09424,6.31982 -8.23047,13.60547c-2.05761,3.65332 -4.09424,7.62158 -5.71094,11.25391c-1.6167,3.63232 -3.02344,6.61377 -3.02344,10.41406v26.875c0,8.83935 7.28565,16.125 16.125,16.125h26.875c4.43018,0 8.35645,-2.22558 10.75,-5.03906c2.39356,-2.81347 3.80029,-6.00488 5.03906,-9.07031c1.70068,-4.24121 2.79248,-10.72901 3.86328,-16.79687c1.0708,-6.06787 1.84766,-11.25391 1.84766,-11.25391v-0.83984c0,-8.83935 -7.28565,-16.125 -16.125,-16.125h-19.48437l3.02344,-9.07031h-0.16797c0.88184,-2.26758 1.32276,-5.12305 0.16797,-7.39062c-1.21777,-2.41455 -3.31738,-3.42236 -4.87109,-4.03125c-3.08643,-1.19678 -5.71094,-1.00781 -5.71094,-1.00781zM76.25781,66.34766l-0.67187,1.84766l-2.35156,7.05469h34.26563c2.89746,0 5.08106,2.33057 5.20703,5.20703c0,0 0,0.14697 0,0.16797h-10.58203v10.75h8.90234c-0.31494,1.78467 -0.62988,3.59033 -1.00781,5.375h-7.89453v10.75h4.87109c-0.75586,1.76367 -1.51172,3.2544 -2.18359,4.03125c-0.92383,1.0918 -1.19678,1.34375 -2.6875,1.34375h-26.875c-2.98144,0 -5.375,-2.39355 -5.375,-5.375v-26.875c0,0 0.60889,-2.91846 2.01563,-6.04687c1.13379,-2.51953 2.81348,-5.39599 4.36719,-8.23047z"/></g></g></symbol>
<symbol id="lock" viewBox="0 0 172 172"><g fill="none" fill-rule="nonzero" stroke="none" stroke-width="1" stroke-linecap="butt" stroke-linejoin="miter" stroke-miterlimit="10" stroke-dasharray="" stroke-dashoffset="0" font-family="none" font-weight="none" font-size="none" text-anchor="none" style="mix-blend-mode: normal"><path d="M0,172v-172h172v172z" fill="none"/><g fill="#333333"><path d="M86,16.125c-20.66016,0 -37.625,16.96484 -37.625,37.625v15.45313c-9.93115,9.76318 -16.125,23.32666 -16.125,38.29688c0,29.62549 24.12451,53.75 53.75,53.75c29.62549,0 53.75,-24.12451 53.75,-53.75c0,-14.97021 -6.19385,-28.53369 -16.125,-38.29687v-15.45312c0,-20.66016 -16.96484,-37.625 -37.625,-37.625zM86,26.875c14.80224,0 26.875,12.07276 26.875,26.875v7.39063c-7.93652,-4.61914 -17.06982,-7.39062 -26.875,-7.39062c-9.80518,0 -18.93847,2.77148 -26.875,7.39063v-7.39062c0,-14.80224 12.07276,-26.875 26.875,-26.875zM86,64.5c23.80957,0 43,19.19043 43,43c0,23.80957 -19.19043,43 -43,43c-23.80957,0 -43,-19.19043 -43,-43c0,-23.80957 19.19043,-43 43,-43zM86,96.75c-5.9419,0 -10.75,4.8081 -10.75,10.75c0,3.96826 2.1626,7.36963 5.375,9.23828v17.63672h10.75v-17.63672c3.2124,-1.86865 5.375,-5.27002 5.375,-9.23828c0,-5.9419 -4.8081,-10.75 -10.75,-10.75z"/></g></g> </symbol>
<symbol id="male" viewBox="0 0 172 172"><g fill="none" fill-rule="nonzero" stroke="none" stroke-width="1" stroke-linecap="butt" stroke-linejoin="miter" stroke-miterlimit="10" stroke-dasharray="" stroke-dashoffset="0" font-family="none" font-weight="none" font-size="none" text-anchor="none" style="mix-blend-mode: normal"><path d="M0,172v-172h172v172z" fill="none"/><g fill="#333333"><path d="M96.75,21.5c-19.69433,0 -34.64355,4.64014 -44.67969,14.10938c-10.03613,9.46924 -14.44531,23.28467 -14.44531,39.64063v4.87109c-3.08643,2.91846 -5.375,6.67676 -5.375,11.25391c0,6.76074 4.78711,11.58984 10.75,13.94141c1.99463,6.27783 4.15723,12.8706 6.55078,18.47656c2.62451,6.13086 4.97607,11.00195 8.23047,14.44531c15.43213,16.31396 41.00537,16.31396 56.4375,0c3.2544,-3.44336 5.43799,-8.31445 8.0625,-14.44531c2.39356,-5.60596 4.72412,-12.19873 6.71875,-18.47656c5.96289,-2.35156 10.75,-7.18066 10.75,-13.94141c0,-4.55615 -2.30957,-8.31445 -5.375,-11.25391v-4.87109c0,-15.18018 -3.46435,-25.99316 -9.57422,-33.08984c-5.18604,-6.02588 -12.11474,-8.48242 -18.98047,-9.23828l-5.71094,-11.42187zM93.55859,32.58594l3.69531,7.39063c1.78467,3.59033 2.49854,6.13086 2.51953,7.22266c0.02099,1.0918 0.06299,0.65088 -0.16797,0.83984c-0.46191,0.39893 -4.99707,1.55371 -10.58203,1.84766c-5.58496,0.29395 -12.17773,0.14697 -18.30859,2.51953c-6.13086,2.37256 -11.52685,8.75537 -11.58984,17.46875h10.75c0.04199,-5.29102 1.28076,-6.06787 4.70313,-7.39062c3.42236,-1.32276 9.34326,-1.72168 15.11719,-2.01562c5.77393,-0.29394 11.73682,0.06299 16.79688,-4.19922c2.51953,-2.1206 4.13623,-5.79492 4.03125,-9.40625c-0.02099,-0.79785 -0.20996,-1.55371 -0.33594,-2.35156c2.33057,0.98682 4.49317,2.49854 6.38281,4.70313c3.90528,4.53516 7.05469,12.49268 7.05469,26.03516v9.91016l2.6875,1.51172c1.6377,0.94482 2.6875,2.66651 2.6875,4.70313c0,2.87646 -2.05761,5.14404 -4.87109,5.375l-3.69531,0.16797l-1.00781,3.52734c-1.99463,6.4668 -4.47217,13.29053 -6.88672,18.98047c-2.41455,5.68994 -5.18604,10.51904 -6.04687,11.42188c-11.44287,12.09375 -29.54151,12.09375 -40.98437,0c-0.86084,-0.90283 -3.63232,-5.73193 -6.04687,-11.42187c-2.41455,-5.68994 -4.89209,-12.51367 -6.88672,-18.98047l-1.00781,-3.52734l-3.69531,-0.16797c-2.81347,-0.23096 -4.87109,-2.49854 -4.87109,-5.375c0,-2.01562 1.02881,-3.7583 2.6875,-4.70312l2.6875,-1.51172v-9.91016c0,-14.4873 3.67432,-24.92236 11.08594,-31.91406c6.88672,-6.50879 18.11963,-10.2041 34.09766,-10.75zM69.875,86c-2.96045,0 -5.375,2.41455 -5.375,5.375c0,2.96045 2.41455,5.375 5.375,5.375c2.96045,0 5.375,-2.41455 5.375,-5.375c0,-2.96045 -2.41455,-5.375 -5.375,-5.375zM102.125,86c-2.96045,0 -5.375,2.41455 -5.375,5.375c0,2.96045 2.41455,5.375 5.375,5.375c2.96045,0 5.375,-2.41455 5.375,-5.375c0,-2.96045 -2.41455,-5.375 -5.375,-5.375z"/></g></g> </symbol>
<symbol id="menu" viewBox="0 0 172 172"><g fill="none" fill-rule="nonzero" stroke="none" stroke-width="1" stroke-linecap="butt" stroke-linejoin="miter" stroke-miterlimit="10" stroke-dasharray="" stroke-dashoffset="0" font-family="none" font-weight="none" font-size="none" text-anchor="none" style="mix-blend-mode: normal"><path d="M0,172v-172h172v172z" fill="none"/><g fill="#666666"><path d="M21.5,37.625v10.75h129v-10.75zM21.5,80.625v10.75h129v-10.75zM21.5,123.625v10.75h129v-10.75z"/></g></g></symbol>
<symbol id="message" viewBox="0 0 172 172"><g fill="none" fill-rule="nonzero" stroke="none" stroke-width="1" stroke-linecap="butt" stroke-linejoin="miter" stroke-miterlimit="10" stroke-dasharray="" stroke-dashoffset="0" font-family="none" font-weight="none" font-size="none" text-anchor="none" style="mix-blend-mode: normal"><path d="M0,172v-172h172v172z" fill="none"/><g fill="#333333"><path d="M53.75,26.875v10.2146l-32.20801,20.9751v87.0603h128.91602v-87.0603l-32.20801,-20.98559v-10.2041zM64.5,37.625h43v41.28882l-21.5,13.93091l-21.5,-13.93091zM69.875,48.375v10.75h32.25v-10.75zM53.75,49.90771v22.0459l-16.96484,-10.99146zM118.25,49.90771l16.96484,11.05444l-16.96484,10.99146zM69.875,64.5v10.75h32.25v-10.75zM32.29199,70.86182l53.70801,34.79053l53.70801,-34.79053v63.51318h-107.41602z"/></g></g> </symbol>
<symbol id="people" viewBox="0 0 172 172"><g fill="none" fill-rule="nonzero" stroke="none" stroke-width="1" stroke-linecap="butt" stroke-linejoin="miter" stroke-miterlimit="10" stroke-dasharray="" stroke-dashoffset="0" font-family="none" font-weight="none" font-size="none" text-anchor="none" style="mix-blend-mode: normal"><path d="M0,172v-172h172v172z" fill="none"/><g fill="#ffffff"><path d="M86,26.875c-20.72315,0 -37.625,16.90185 -37.625,37.625c0,12.95459 6.61377,24.46045 16.62891,31.24219c-19.16943,8.23047 -32.75391,27.25293 -32.75391,49.38281h10.75c0,-15.53711 8.20947,-29.05859 20.49219,-36.61719c3.61133,8.86035 12.40869,15.11719 22.50781,15.11719c10.09912,0 18.89648,-6.25683 22.50781,-15.11719c12.28271,7.55859 20.49219,21.08008 20.49219,36.61719h10.75c0,-22.12988 -13.58447,-41.15234 -32.75391,-49.38281c10.01514,-6.78174 16.62891,-18.2876 16.62891,-31.24219c0,-20.72315 -16.90185,-37.625 -37.625,-37.625zM86,37.625c14.90723,0 26.875,11.96778 26.875,26.875c0,14.90723 -11.96777,26.875 -26.875,26.875c-14.90722,0 -26.875,-11.96777 -26.875,-26.875c0,-14.90722 11.96778,-26.875 26.875,-26.875zM86,102.125c4.40918,0 8.6084,0.62989 12.59766,1.84766c-1.86865,5.18604 -6.73974,8.90234 -12.59766,8.90234c-5.85791,0 -10.72901,-3.71631 -12.59766,-8.90234c3.98926,-1.21777 8.18848,-1.84766 12.59766,-1.84766z"/></g></g></symbol>
<symbol id="profile" viewBox="0 0 172 172"><g fill="none" fill-rule="nonzero" stroke="none" stroke-width="1" stroke-linecap="butt" stroke-linejoin="miter" stroke-miterlimit="10" stroke-dasharray="" stroke-dashoffset="0" font-family="none" font-weight="none" font-size="none" text-anchor="none" style="mix-blend-mode: normal"><path d="M0,172v-172h172v172z" fill="none"/><g fill="#333333"><path d="M48.375,37.625c-17.7417,0 -32.25,14.5083 -32.25,32.25c0,10.66602 5.24903,20.15625 13.26953,26.03516c-14.17236,7.03369 -24.01953,21.60498 -24.01953,38.46484h10.75c0,-17.86768 14.38232,-32.25 32.25,-32.25c17.86768,0 32.25,14.38232 32.25,32.25h10.75c0,-16.85986 -9.84717,-31.43115 -24.01953,-38.46484c8.02051,-5.87891 13.26953,-15.36914 13.26953,-26.03516c0,-17.7417 -14.5083,-32.25 -32.25,-32.25zM48.375,48.375c11.94678,0 21.5,9.55322 21.5,21.5c0,11.94678 -9.55322,21.5 -21.5,21.5c-11.94678,0 -21.5,-9.55322 -21.5,-21.5c0,-11.94678 9.55322,-21.5 21.5,-21.5zM102.125,59.125v10.75h64.5v-10.75zM102.125,80.625v10.75h64.5v-10.75zM102.125,102.125v10.75h64.5v-10.75z"/></g></g></symbol>
<symbol id="register" viewBox="0 0 172 172"><g fill="none" fill-rule="nonzero" stroke="none" stroke-width="1" stroke-linecap="butt" stroke-linejoin="miter" stroke-miterlimit="10" stroke-dasharray="" stroke-dashoffset="0" font-family="none" font-weight="none" font-size="none" text-anchor="none" style="mix-blend-mode: normal"><path d="M0,172v-172h172v172z" fill="none"/><g fill="#333333"><path d="M32.25,16.125v37.82446c3.1175,-2.35962 6.72413,-4.11733 10.75,-4.92358v-22.15088h53.75v32.25h32.25v59.125h10.75v-66.72559l-35.39942,-35.39941zM107.5,34.47559l13.89942,13.89941h-13.89942zM48.47998,59.22998c-8.769,0 -16.02002,7.25102 -16.02002,16.02002v55.27222l16.02002,24.03003l16.02002,-24.03003v-1.6272v-53.64502c0,-8.769 -7.25102,-16.02002 -16.02002,-16.02002zM75.25,69.875v10.75h37.625v-10.75zM48.47998,69.97998c3.38925,0 5.27002,1.88077 5.27002,5.27002v52.01782l-5.27002,7.90503l-5.27002,-7.90503v-52.01782c0,-3.38925 1.88077,-5.27002 5.27002,-5.27002zM75.25,91.375v10.75h37.625v-10.75zM75.25,112.875v10.75h37.625v-10.75zM130.15479,125.66162c0,0 -4.08282,5.15304 -9.28028,10.24609c-2.59873,2.54652 -5.4657,5.05494 -8.02051,6.78174c-2.5548,1.7268 -4.83859,2.43555 -5.35401,2.43555c0,-1.34375 0.32036,-3.83417 -1.57471,-6.67676c-1.89506,-2.84258 -5.59196,-4.07324 -9.17529,-4.07324c-6.36716,0 -12.67774,3.09266 -18.63403,5.87891c-5.9563,2.78624 -10.87597,5.56396 -10.87597,5.56396l5.27002,9.36426c0,0 4.628,-2.59728 10.16211,-5.18604c5.53411,-2.58876 12.65666,-4.87109 14.07788,-4.87109c0,1.34375 -0.32035,3.83417 1.57471,6.67676c1.89506,2.84258 5.59196,4.07324 9.17529,4.07324c4.41883,0 7.95995,-1.97875 11.36938,-4.2832c3.40944,-2.30445 6.64577,-5.17103 9.53223,-7.99951c5.77292,-5.65695 10.1936,-11.25391 10.1936,-11.25391z"/></g></g></symbol>
<symbol id="setting" viewBox="0 0 172 172"><g fill="none" fill-rule="nonzero" stroke="none" stroke-width="1" stroke-linecap="butt" stroke-linejoin="miter" stroke-miterlimit="10" stroke-dasharray="" stroke-dashoffset="0" font-family="none" font-weight="none" font-size="none" text-anchor="none" style="mix-blend-mode: normal"><path d="M0,172v-172h172v172z" fill="none"/><g fill="#000015"><path d="M70.88281,16.125l-0.83984,4.36719l-3.19141,15.95703c-5.12305,2.01563 -9.74219,4.8501 -13.94141,8.23047l-15.62109,-5.375l-4.19922,-1.34375l-2.18359,3.86328l-10.75,18.47656l-2.18359,3.86328l3.19141,2.85547l12.09375,10.58203c-0.44092,2.75049 -1.00781,5.50098 -1.00781,8.39844c0,2.89746 0.5669,5.64795 1.00781,8.39844l-12.09375,10.58203l-3.19141,2.85547l2.18359,3.86328l10.75,18.47656l2.18359,3.86328l4.19922,-1.34375l15.62109,-5.375c4.19922,3.38037 8.81836,6.21484 13.94141,8.23047l3.19141,15.95703l0.83984,4.36719h30.23438l0.83984,-4.36719l3.19141,-15.95703c5.12305,-2.01562 9.74219,-4.8501 13.94141,-8.23047l15.62109,5.375l4.19922,1.34375l2.18359,-3.86328l10.75,-18.47656l2.18359,-3.86328l-3.19141,-2.85547l-12.09375,-10.58203c0.44092,-2.75049 1.00781,-5.50097 1.00781,-8.39844c0,-2.89746 -0.5669,-5.64795 -1.00781,-8.39844l12.09375,-10.58203l3.19141,-2.85547l-2.18359,-3.86328l-10.75,-18.47656l-2.18359,-3.86328l-4.19922,1.34375l-15.62109,5.375c-4.19922,-3.38037 -8.81836,-6.21484 -13.94141,-8.23047l-3.19141,-15.95703l-0.83984,-4.36719zM79.61719,26.875h12.76563l2.6875,13.94141l0.67188,3.19141l3.02344,1.00781c6.10986,1.91065 11.65283,5.14404 16.29297,9.40625l2.35156,2.18359l3.02344,-1.00781l13.60547,-4.70312l6.38281,10.91797l-10.75,9.57422l-2.51953,2.01563l0.83984,3.19141c0.69287,3.06543 1.00781,6.19385 1.00781,9.40625c0,3.2124 -0.31494,6.34082 -1.00781,9.40625l-0.67187,3.19141l2.35156,2.01563l10.75,9.57422l-6.38281,10.91797l-13.60547,-4.70312l-3.02344,-1.00781l-2.35156,2.18359c-4.64014,4.26221 -10.1831,7.4956 -16.29297,9.40625l-3.02344,1.00781l-0.67187,3.19141l-2.6875,13.94141h-12.76562l-2.6875,-13.94141l-0.67187,-3.19141l-3.02344,-1.00781c-6.10986,-1.91065 -11.65283,-5.14404 -16.29297,-9.40625l-2.35156,-2.18359l-3.02344,1.00781l-13.60547,4.70313l-6.38281,-10.91797l10.75,-9.57422l2.51953,-2.01562l-0.83984,-3.19141c-0.69287,-3.06543 -1.00781,-6.19385 -1.00781,-9.40625c0,-3.2124 0.31494,-6.34082 1.00781,-9.40625l0.83984,-3.19141l-2.51953,-2.01562l-10.75,-9.57422l6.38281,-10.91797l13.60547,4.70313l3.02344,1.00781l2.35156,-2.18359c4.64014,-4.26221 10.1831,-7.4956 16.29297,-9.40625l3.02344,-1.00781l0.67188,-3.19141zM86,59.125c-14.78125,0 -26.875,12.09375 -26.875,26.875c0,14.78125 12.09375,26.875 26.875,26.875c14.78125,0 26.875,-12.09375 26.875,-26.875c0,-14.78125 -12.09375,-26.875 -26.875,-26.875zM86,69.875c8.96533,0 16.125,7.15967 16.125,16.125c0,8.96533 -7.15967,16.125 -16.125,16.125c-8.96533,0 -16.125,-7.15967 -16.125,-16.125c0,-8.96533 7.15967,-16.125 16.125,-16.125z"/></g></g> </symbol>
<symbol id="student" viewBox="0 0 172 172"><g fill="none" fill-rule="nonzero" stroke="none" stroke-width="1" stroke-linecap="butt" stroke-linejoin="miter" stroke-miterlimit="10" stroke-dasharray="" stroke-dashoffset="0" font-family="none" font-weight="none" font-size="none" text-anchor="none" style="mix-blend-mode: normal"><path d="M0,172v-172h172v172z" fill="none"/><g fill="#ffffff"><path d="M86,21.5c-17.7417,0 -32.25,14.5083 -32.25,32.25c0,10.41406 5.06006,19.63135 12.76563,25.53125c-8.65039,3.7793 -15.81006,10.1831 -20.99609,18.14063c-4.55615,1.55371 -7.99951,6.02588 -7.22266,11.25391h-0.16797l1.34375,10.07813c-7.13867,1.65869 -12.59766,8.02051 -12.59766,15.62109c0,8.83935 7.28565,16.125 16.125,16.125h86c8.83935,0 16.125,-7.28565 16.125,-16.125c0,-7.85254 -5.79492,-14.40332 -13.26953,-15.78906l1.34375,-9.74219c0,-0.06299 0,-0.10498 0,-0.16797c0.73486,-4.91308 -2.24658,-9.1123 -6.38281,-10.91797c-5.18604,-7.89453 -12.51367,-14.38232 -21.33203,-18.30859c7.74756,-5.8999 12.76563,-15.24316 12.76563,-25.69922c0,-17.7417 -14.5083,-32.25 -32.25,-32.25zM86,32.25c11.94678,0 21.5,9.55322 21.5,21.5c0,11.94678 -9.55322,21.5 -21.5,21.5c-11.94678,0 -21.5,-9.55322 -21.5,-21.5c0,-11.94678 9.55322,-21.5 21.5,-21.5zM86,86c10.16211,0 19.40039,4.19922 26.20313,10.75h-52.74219c6.82373,-6.78174 16.14599,-10.75 26.53906,-10.75zM48.87891,107.5h73.73828l-4.36719,32.08203v0.16797h-65.00391c0.06299,0 0,-0.14697 0,-0.16797zM112.875,112.875c-2.96045,0 -5.375,2.41455 -5.375,5.375c0,2.96045 2.41455,5.375 5.375,5.375c2.96045,0 5.375,-2.41455 5.375,-5.375c0,-2.96045 -2.41455,-5.375 -5.375,-5.375zM130.51172,129.33594c2.20459,0.67188 3.86328,2.60352 3.86328,5.03906c0,2.98145 -2.39355,5.375 -5.375,5.375zM40.98438,129.50391l1.34375,10.07813c-2.62451,-0.35693 -4.70312,-2.47754 -4.70312,-5.20703c0,-2.22558 1.42773,-4.05224 3.35938,-4.87109z"/></g></g></symbol>
<symbol id="teacher" viewBox="0 0 172 172"><g fill="none" fill-rule="nonzero" stroke="none" stroke-width="1" stroke-linecap="butt" stroke-linejoin="miter" stroke-miterlimit="10" stroke-dasharray="" stroke-dashoffset="0" font-family="none" font-weight="none" font-size="none" text-anchor="none" style="mix-blend-mode: normal"><path d="M0,172v-172h172v172z" fill="none"/><g fill="#ecf0f1"><path d="M21.5,32.25v10.75h118.25v86h-75.25v10.75h96.75v-10.75h-10.75v-96.75zM43.0105,48.375c-11.81792,0 -21.5105,9.68933 -21.5105,21.5c0,11.81792 9.6969,21.5 21.5105,21.5c11.7991,0 21.4895,-9.68208 21.4895,-21.5c0,-11.81067 -9.68607,-21.5 -21.4895,-21.5zM75.25,53.75v10.75h26.875v-10.75zM112.875,53.75v10.75h16.125v-10.75zM43.0105,59.125c5.98782,0 10.7395,4.74792 10.7395,10.75c0,6.01633 -4.74735,10.75 -10.7395,10.75c-6.02065,0 -10.7605,-4.73367 -10.7605,-10.75c0,-6.00208 4.74417,-10.75 10.7605,-10.75zM75.25,75.25v10.75h53.75v-10.75zM21.5,96.75v43h10.75v-32.25h16.125v32.25h10.75v-28.71216l11.09643,5.86841c3.14061,1.6671 6.91835,1.66045 10.05713,0v0.0105l18.98047,-10.03613l-5.01807,-9.51123l-18.98047,10.03614l-16.6394,-8.78687c-2.31755,-1.2234 -4.906,-1.86865 -7.5376,-1.86865z"/></g></g></symbol>
<symbol id="thermo" viewBox="0 0 172 172"><g fill="none" fill-rule="nonzero" stroke="none" stroke-width="1" stroke-linecap="butt" stroke-linejoin="miter" stroke-miterlimit="10" stroke-dasharray="" stroke-dashoffset="0" font-family="none" font-weight="none" font-size="none" text-anchor="none" style="mix-blend-mode: normal"><path d="M0,172v-172h172v172z" fill="none"/><g fill="#ecf0f1"><path d="M48.375,21.5v61.64453c-9.40625,6.82087 -16.125,17.23897 -16.125,29.73047c0,20.72063 16.90437,37.625 37.625,37.625c20.72062,0 37.625,-16.90437 37.625,-37.625c0,-12.4915 -6.71875,-22.90959 -16.125,-29.73047v-7.89453h10.75v-10.75h-10.75v-10.75h10.75v-10.75h-10.75v-10.75h10.75v-10.75zM131.6875,21.5c-10.37375,0 -18.8125,8.43875 -18.8125,18.8125c0,10.37375 8.43875,18.8125 18.8125,18.8125c10.37375,0 18.8125,-8.43875 18.8125,-18.8125c0,-10.37375 -8.43875,-18.8125 -18.8125,-18.8125zM59.125,32.25h21.5v55.93359l2.6875,1.51172c8.041,4.6655 13.4375,13.22519 13.4375,23.17969c0,14.90488 -11.97012,26.875 -26.875,26.875c-14.90487,0 -26.875,-11.97012 -26.875,-26.875c0,-9.9545 5.3965,-18.51419 13.4375,-23.17969l2.6875,-1.51172zM131.6875,32.25c4.44513,0 8.0625,3.61738 8.0625,8.0625c0,4.44512 -3.61737,8.0625 -8.0625,8.0625c-4.44513,0 -8.0625,-3.61738 -8.0625,-8.0625c0,-4.44512 3.61737,-8.0625 8.0625,-8.0625zM64.5,43v54.75781c-6.235,2.22525 -10.75,8.13481 -10.75,15.12768c0,8.901 7.224,16.125 16.125,16.125c8.901,0 16.125,-7.224 16.125,-16.125c0,-6.99288 -4.515,-12.89706 -10.75,-15.12768v-54.75781z"/></g></g> </symbol>
<symbol id="visit-v2" viewBox="0 0 172 172"><g fill="none" fill-rule="nonzero" stroke="none" stroke-width="1" stroke-linecap="butt" stroke-linejoin="miter" stroke-miterlimit="10" stroke-dasharray="" stroke-dashoffset="0" font-family="none" font-weight="none" font-size="none" text-anchor="none" style="mix-blend-mode: normal"><path d="M0,172v-172h172v172z" fill="none"/><g fill="#333333"><path d="M164.83333,167.75733l-16.54783,-35.33883c5.66167,-3.87717 9.38117,-10.37733 9.38117,-17.75183v-71.66667c0,-11.87517 -9.62483,-21.5 -21.5,-21.5h-100.33333c-11.87517,0 -21.5,9.62483 -21.5,21.5v71.66667c0,11.87517 9.62483,21.5 21.5,21.5h71.66667v31.59067z" opacity="0.35"/><circle cx="8" cy="9" transform="scale(7.16667,7.16667)" r="2"/><path d="M75.25,107.5h-35.83333c-5.934,0 -10.75,-4.816 -10.75,-10.75v0c0,-5.934 4.816,-10.75 10.75,-10.75h35.83333c5.934,0 10.75,4.816 10.75,10.75v0c0,5.934 -4.816,10.75 -10.75,10.75z"/><path d="M136.16667,57.33333h-28.66667c-3.956,0 -7.16667,-3.21067 -7.16667,-7.16667v0c0,-3.956 3.21067,-7.16667 7.16667,-7.16667h28.66667c3.956,0 7.16667,3.21067 7.16667,7.16667v0c0,3.956 -3.21067,7.16667 -7.16667,7.16667z"/><path d="M136.16667,86h-28.66667c-3.956,0 -7.16667,-3.21067 -7.16667,-7.16667v0c0,-3.956 3.21067,-7.16667 7.16667,-7.16667h28.66667c3.956,0 7.16667,3.21067 7.16667,7.16667v0c0,3.956 -3.21067,7.16667 -7.16667,7.16667z"/><path d="M135.106,103.7805l35.20267,57.26167c2.93833,4.773 -0.50167,10.922 -6.106,10.922h-70.39817c-5.60433,0 -9.03717,-6.14183 -6.106,-10.922l35.20267,-57.26167c2.78783,-4.55083 9.40983,-4.55083 12.20483,0zM128.96417,150.7365c-5.31767,0 -6.536,5.15283 -6.536,7.0735c0,1.96367 1.075,6.9875 6.536,6.9875c5.461,0 6.6005,-5.02383 6.6005,-6.9875c0.00717,-1.92067 -1.28283,-7.0735 -6.6005,-7.0735zM129,145.36867v0c3.32533,0 6.02,-2.69467 6.02,-6.02v-17.08533c0,-3.32533 -2.69467,-6.02 -6.02,-6.02v0c-3.32533,0 -6.02,2.69467 -6.02,6.02v17.08533c0,3.32533 2.69467,6.02 6.02,6.02z"/></g></g> </symbol>
<symbol id="visit" viewBox="0 0 172 172"><g fill="none" fill-rule="nonzero" stroke="none" stroke-width="1" stroke-linecap="butt" stroke-linejoin="miter" stroke-miterlimit="10" stroke-dasharray="" stroke-dashoffset="0" font-family="none" font-weight="none" font-size="none" text-anchor="none" style="mix-blend-mode: normal"><path d="M0,172v-172h172v172z" fill="none"/><g fill="#ecf0f1"><path d="M59.125,21.5c-11.81067,0 -21.5,9.68933 -21.5,21.5c0,6.19196 2.74538,11.6963 6.9812,15.63159c-7.25787,4.82577 -12.3562,12.67539 -12.3562,21.99341v5.375h-10.75v10.75h75.25v14.06739l10.75,5.375v34.30761h32.25v-34.30761l10.75,-5.375v-30.19239c0,-9.31801 -5.09834,-17.16764 -12.3562,-21.99341c4.23582,-3.93529 6.9812,-9.43963 6.9812,-15.63159c0,-11.81067 -9.68933,-21.5 -21.5,-21.5c-11.81067,0 -21.5,9.68933 -21.5,21.5c0,6.19196 2.74538,11.6963 6.9812,15.63159c-7.25786,4.82577 -12.3562,12.67539 -12.3562,21.99341v5.375h-10.75v-5.375c0,-9.31801 -5.09834,-17.16764 -12.3562,-21.99341c4.23582,-3.93529 6.9812,-9.43963 6.9812,-15.63159c0,-11.81067 -9.68933,-21.5 -21.5,-21.5zM59.125,32.25c6.00208,0 10.75,4.74792 10.75,10.75c0,6.00208 -4.74792,10.75 -10.75,10.75c-6.00208,0 -10.75,-4.74792 -10.75,-10.75c0,-6.00208 4.74792,-10.75 10.75,-10.75zM123.625,32.25c6.00208,0 10.75,4.74792 10.75,10.75c0,6.00208 -4.74792,10.75 -10.75,10.75c-6.00208,0 -10.75,-4.74792 -10.75,-10.75c0,-6.00208 4.74792,-10.75 10.75,-10.75zM59.125,64.5c8.9681,0 16.125,7.1569 16.125,16.125v5.375h-32.25v-5.375c0,-8.9681 7.1569,-16.125 16.125,-16.125zM123.625,64.5c8.9681,0 16.125,7.1569 16.125,16.125v23.55761l-10.75,5.375v30.19239h-10.75v-30.19239l-10.75,-5.375v-23.55761c0,-8.9681 7.1569,-16.125 16.125,-16.125zM53.75,107.5v5.375h-16.125v5.375v32.25h53.75v-37.625h-16.125v-5.375zM48.375,123.625h5.375h21.5h5.375v16.125h-32.25z"/></g></g></symbol>
</svg>