<svg xmlns="http://www.w3.org/2000/svg" x="0px" y="0px"
    width="26" height="26"
    viewBox="0 0 172 172"
    style=" fill:#000000;"><g fill="none" fill-rule="nonzero" stroke="none" stroke-width="1" stroke-linecap="butt" stroke-linejoin="miter" stroke-miterlimit="10" stroke-dasharray="" stroke-dashoffset="0" font-family="none" font-weight="none" font-size="none" text-anchor="none" style="mix-blend-mode: normal"><path d="M0,172v-172h172v172z" fill="none"></path><g fill="#000015"><path d="M86,102.125c-8.88135,0 -16.125,-7.24365 -16.125,-16.125c0,-8.88135 7.24365,-16.125 16.125,-16.125c8.88135,0 16.125,7.24365 16.125,16.125c0,8.88135 -7.24365,16.125 -16.125,16.125zM86,80.625c-2.96045,0 -5.375,2.41455 -5.375,5.375c0,2.96045 2.41455,5.375 5.375,5.375c2.96045,0 5.375,-2.41455 5.375,-5.375c0,-2.96045 -2.41455,-5.375 -5.375,-5.375zM40.39648,139.2041l-3.80029,-3.8003c-27.25293,-27.23193 -27.25293,-71.57568 0,-98.80761l3.80029,-3.80029l26.60205,26.60205l-3.80029,3.8003c-6.08887,6.08886 -9.44824,14.19336 -9.44824,22.80176c0,8.6084 3.35938,16.71289 9.44824,22.80176l3.80029,3.80029zM40.56445,48.16504c-18.22461,21.83594 -18.22461,53.83398 0,75.66992l11.46387,-11.46387c-5.85791,-7.5166 -9.02832,-16.6919 -9.02832,-26.37109c0,-9.6792 3.17041,-18.85449 9.02832,-26.37109zM131.60352,139.2041l-26.60205,-26.60205l3.8003,-3.80029c12.57666,-12.57666 12.57666,-33.02686 0,-45.60352l-3.8003,-3.8003l26.60205,-26.60205l3.80029,3.80029c27.25293,27.23193 27.25293,71.57568 0,98.80761zM119.97168,112.37109l11.46386,11.46387c18.22461,-21.83594 18.22461,-53.83398 0,-75.66992l-11.46386,11.46386c12.00977,15.45313 12.00977,37.28906 0,52.74219z"></path></g></g>
</svg>