<svg xmlns="http://www.w3.org/2000/svg" x="0px" y="0px"
    width="20" height="20"
    viewBox="0 0 172 172"
    style=" fill:#000000;"><g fill="none" fill-rule="nonzero" stroke="none" stroke-width="1" stroke-linecap="butt" stroke-linejoin="miter" stroke-miterlimit="10" stroke-dasharray="" stroke-dashoffset="0" font-family="none" font-weight="none" font-size="none" text-anchor="none" style="mix-blend-mode: normal"><path d="M0,172v-172h172v172z" fill="none"></path><g fill="#ecf0f1"><path d="M69.875,21.5c-11.8208,0 -21.5,9.6792 -21.5,21.5c0,5.98389 2.56153,11.37989 6.55078,15.28516c-7.15967,4.8501 -11.92578,13.12256 -11.92578,22.33984h10.75c0,-8.90234 7.22266,-16.125 16.125,-16.125c8.90234,0 16.125,7.22266 16.125,16.125h10.75c0,-9.21729 -4.76611,-17.48974 -11.92578,-22.33984c3.98926,-3.90527 6.55078,-9.30127 6.55078,-15.28516c0,-11.8208 -9.6792,-21.5 -21.5,-21.5zM69.875,32.25c6.00489,0 10.75,4.74512 10.75,10.75c0,6.00489 -4.74511,10.75 -10.75,10.75c-6.00488,0 -10.75,-4.74511 -10.75,-10.75c0,-6.00488 4.74512,-10.75 10.75,-10.75zM123.625,64.5c-8.83935,0 -16.125,7.28565 -16.125,16.125h10.75c0,-2.98144 2.39356,-5.375 5.375,-5.375c2.98145,0 5.375,2.39356 5.375,5.375h10.75c0,-8.83935 -7.28565,-16.125 -16.125,-16.125zM21.5,86v10.75h5.375v53.75h118.25v-53.75h5.375v-10.75zM37.625,96.75h96.75v43h-96.75z"></path></g></g>
</svg>