<svg xmlns="http://www.w3.org/2000/svg" x="0px" y="0px"
width="20" height="20"
viewBox="0 0 172 172"
style=" fill:#000000;"><g fill="none" fill-rule="nonzero" stroke="none" stroke-width="1" stroke-linecap="butt" stroke-linejoin="miter" stroke-miterlimit="10" stroke-dasharray="" stroke-dashoffset="0" font-family="none" font-weight="none" font-size="none" text-anchor="none" style="mix-blend-mode: normal"><path d="M0,172v-172h172v172z" fill="none"></path><g fill="#333333"><path d="M129,150.5h-86c-11.87517,0 -21.5,-9.62483 -21.5,-21.5v-86h129v86c0,11.87517 -9.62483,21.5 -21.5,21.5z" opacity="0.35"></path><path d="M129,21.5h-86c-11.87517,0 -21.5,9.62483 -21.5,21.5v7.16667h129v-7.16667c0,-11.87517 -9.62483,-21.5 -21.5,-21.5z"></path><path d="M48.375,91.375c-2.967,0 -5.375,-2.408 -5.375,-5.375v-8.95833c0,-2.967 2.408,-5.375 5.375,-5.375c2.967,0 5.375,2.408 5.375,5.375v8.95833c0,2.967 -2.408,5.375 -5.375,5.375z"></path><path d="M105.307,104.834c-2.1715,0 -12.97883,-0.65933 -12.97883,-15.8885c0,-3.66217 1.42617,-17.27883 16.168,-17.27883c14.74183,0 16.02467,13.55217 16.02467,17.27883c0,7.48917 -2.95983,12.84267 -4.15667,15.05717l-7.81167,14.878c-0.96033,1.81317 -2.838,2.95267 -4.88767,2.95267v0c-4.20683,0 -6.86567,-4.515 -4.83033,-8.1915l5.10983,-9.2235l-0.0645,-0.0645c-0.24367,0.13617 -2.16433,0.48017 -2.57283,0.48017zM103.01367,89.08883c0,2.408 0.774,7.9765 5.33917,7.9765c4.56517,0 5.4825,-5.61867 5.4825,-7.9765c0,-2.35783 -0.93883,-7.912 -5.40367,-7.912c-4.472,-0.00717 -5.418,5.55417 -5.418,7.912z"></path><path d="M71.66667,116.272v-31.41867l-2.9885,2.25033c-2.40083,1.81317 -5.84083,1.10367 -7.33867,-1.505v0c-1.26133,-2.20733 -0.6665,-5.00233 1.38317,-6.50733l8.17,-5.98417c1.29,-0.93167 2.83083,-1.4405 4.42183,-1.4405v0c4.128,0 7.47483,3.34683 7.47483,7.47483v37.12333c0,3.0745 -2.494,5.56133 -5.56133,5.56133v0c-3.06733,0.00717 -5.56133,-2.48683 -5.56133,-5.55417z"></path></g></g>
</svg>