<svg xmlns="http://www.w3.org/2000/svg" x="0px" y="0px"
    width="20" height="20"
    viewBox="0 0 172 172"
    style=" fill:#000000;"><g fill="none" fill-rule="nonzero" stroke="none" stroke-width="1" stroke-linecap="butt" stroke-linejoin="miter" stroke-miterlimit="10" stroke-dasharray="" stroke-dashoffset="0" font-family="none" font-weight="none" font-size="none" text-anchor="none" style="mix-blend-mode: normal"><path d="M0,172v-172h172v172z" fill="none"></path><g fill="#333333"><path d="M129,150.5h-86c-11.87517,0 -21.5,-9.62483 -21.5,-21.5v-86h129v86c0,11.87517 -9.62483,21.5 -21.5,21.5z" opacity="0.35"></path><path d="M129,21.5h-86c-11.87517,0 -21.5,9.62483 -21.5,21.5v7.16667h129v-7.16667c0,-11.87517 -9.62483,-21.5 -21.5,-21.5z"></path><path d="M48.375,91.375c-2.967,0 -5.375,-2.408 -5.375,-5.375v-8.95833c0,-2.967 2.408,-5.375 5.375,-5.375c2.967,0 5.375,2.408 5.375,5.375v8.95833c0,2.967 -2.408,5.375 -5.375,5.375z"></path><path d="M110.7035,116.272v-31.41867l-2.9885,2.25033c-2.40083,1.81317 -5.84083,1.10367 -7.33867,-1.505v0c-1.26133,-2.20733 -0.6665,-5.00233 1.38317,-6.50733l8.17,-5.98417c1.29,-0.93167 2.838,-1.4405 4.429,-1.4405v0c4.128,0 7.47483,3.34683 7.47483,7.47483v37.12333c0,3.0745 -2.494,5.5685 -5.56133,5.5685v0c-3.0745,0 -5.5685,-2.494 -5.5685,-5.56133z"></path><path d="M91.81933,86.24367c0,8.686 -5.92683,13.49483 -16.512,26.015h11.10117c2.6445,0 4.78733,2.14283 4.78733,4.78733v0c0,2.6445 -2.14283,4.78733 -4.78733,4.78733h-17.0925c-3.97033,0 -7.18817,-3.21783 -7.18817,-7.18817v0c0,-1.72 0.61633,-3.38983 1.73433,-4.687c12.169,-14.1255 17.06383,-18.189 17.06383,-23.57833c0,-1.42617 -0.29383,-5.203 -4.15667,-5.203c-2.20733,0 -3.44,1.40467 -4.128,2.99567c-0.86717,2.01383 -2.98133,3.182 -5.16,2.98133v0c-3.4615,-0.3225 -5.74767,-3.956 -4.30717,-7.1165c1.94933,-4.29283 5.90533,-8.37067 13.93917,-8.37067c11.76767,0 14.706,8.80783 14.706,14.577z"></path></g></g>
</svg>