<svg xmlns="http://www.w3.org/2000/svg" x="0px" y="0px"
width="32" height="32"
viewBox="0 0 172 172"
style=" fill:#000000;"><g fill="none" fill-rule="nonzero" stroke="none" stroke-width="1" stroke-linecap="butt" stroke-linejoin="miter" stroke-miterlimit="10" stroke-dasharray="" stroke-dashoffset="0" font-family="none" font-weight="none" font-size="none" text-anchor="none" style="mix-blend-mode: normal"><path d="M0,172v-172h172v172z" fill="none"></path><g fill="#ffffff"><path d="M75.25,21.5c-2.81347,0 -5.68994,0.98682 -7.72656,3.02344c-2.03662,2.03662 -3.02344,4.91309 -3.02344,7.72656v5.375h-37.625v10.75h5.87891l10.24609,97.25391l0.50391,4.87109h84.99219l0.50391,-4.87109l10.24609,-97.25391h5.87891v-10.75h-37.625v-5.375c0,-2.81347 -0.98682,-5.68994 -3.02344,-7.72656c-2.03662,-2.03662 -4.91308,-3.02344 -7.72656,-3.02344zM75.25,32.25h21.5v5.375h-21.5zM43.67188,48.375h84.65625l-9.57422,91.375h-65.50781zM64.5,64.5v59.125h10.75v-59.125zM80.625,64.5v59.125h10.75v-59.125zM96.75,64.5v59.125h10.75v-59.125z"></path></g></g></svg>