<svg xmlns="http://www.w3.org/2000/svg" x="0px" y="0px"
width="32" height="32"
viewBox="0 0 172 172"
style=" fill:#000000;"><g fill="none" fill-rule="nonzero" stroke="none" stroke-width="1" stroke-linecap="butt" stroke-linejoin="miter" stroke-miterlimit="10" stroke-dasharray="" stroke-dashoffset="0" font-family="none" font-weight="none" font-size="none" text-anchor="none" style="mix-blend-mode: normal"><path d="M0,172v-172h172v172z" fill="none"></path><g fill="#333333"><path d="M75.41797,43c-7.26465,0 -14.17236,2.35156 -19.98828,6.71875l-37.12109,28.05078c-8.0625,6.06787 -12.93359,15.62109 -12.93359,25.69922v9.40625h-5.375v10.75h54.25391l23.85156,29.22656l6.71875,8.0625l8.23047,-6.38281l9.91016,-7.72656l8.73438,-6.71875l-7.05469,-8.56641l-6.55078,-7.89453h73.90625v-10.75h-24.1875l12.42969,-4.70312l9.91016,-3.69531l-3.52734,-9.91016l-5.375,-15.28516l-3.86328,-10.75l-10.41406,4.36719l-24.35547,10.07813l-20.66016,-26.875c-6.36182,-8.27246 -16.10401,-13.10156 -26.53906,-13.10156zM75.41797,53.75c6.78174,0 13.52148,3.12842 17.97266,8.90234l25.69922,33.59375l31.91406,-13.4375l5.375,15.28516l-37.625,14.27734c-0.83984,0.31494 -1.63769,0.50391 -2.51953,0.50391c-1.97363,0 -3.94727,-0.88183 -5.375,-2.35156l-28.72266,-29.39453l-30.73828,20.99609h15.11719l29.73047,36.28125l-9.74219,7.55859l-27.21094,-33.08984c0,0 -19.10644,0 -31.91406,0c-3.33838,0 -3.86328,0 -5.87891,0h-5.375v-9.40625c0,-6.76074 3.14942,-13.08057 8.56641,-17.13281l37.28906,-28.05078c4.05224,-3.04443 8.71338,-4.53516 13.4375,-4.53516zM80.79297,95.07031l17.30078,17.80469h-8.73437l-12.42969,-15.11719z"></path></g></g></svg>