<svg xmlns="http://www.w3.org/2000/svg" x="0px" y="0px"
width="32" height="32"
viewBox="0 0 172 172"
style=" fill:#000000;"><g fill="none" fill-rule="nonzero" stroke="none" stroke-width="1" stroke-linecap="butt" stroke-linejoin="miter" stroke-miterlimit="10" stroke-dasharray="" stroke-dashoffset="0" font-family="none" font-weight="none" font-size="none" text-anchor="none" style="mix-blend-mode: normal"><path d="M0,172v-172h172v172z" fill="none"></path><g fill="#ffffff"><path d="M32.25,16.125v139.75h55.76563l-1.84766,9.74219l-1.67969,7.89453l7.89453,-1.67969l18.8125,-3.69531l1.67969,-0.33594l1.17578,-1.17578l53.07813,-53.24609c6.19385,-6.19385 6.19385,-16.31396 0,-22.50781c-3.10742,-3.10742 -7.13867,-4.70312 -11.25391,-4.70312c-4.11523,0 -8.14648,1.5957 -11.25391,4.70313l-4.87109,4.87109v-44.17578l-1.51172,-1.67969l-32.25,-32.25l-1.67969,-1.51172zM43,26.875h53.75v32.25h32.25v47.36719l-37.625,37.45703l-1.17578,1.17578h-47.19922zM107.5,34.60156l13.77344,13.77344h-13.77344zM155.875,96.58203c1.25977,0 2.49854,0.65088 3.69531,1.84766c2.39356,2.39356 2.39356,4.99707 0,7.39063l-52.07031,52.07031l-9.23828,1.84766l1.84766,-9.23828l51.73438,-51.90234l0.33594,-0.16797c1.19678,-1.19678 2.43555,-1.84766 3.69531,-1.84766z"></path></g></g></svg>