<svg xmlns="http://www.w3.org/2000/svg" x="0px" y="0px"
width="32" height="32"
viewBox="0 0 172 172"
style=" fill:#000000;"><g fill="none" fill-rule="nonzero" stroke="none" stroke-width="1" stroke-linecap="butt" stroke-linejoin="miter" stroke-miterlimit="10" stroke-dasharray="" stroke-dashoffset="0" font-family="none" font-weight="none" font-size="none" text-anchor="none" style="mix-blend-mode: normal"><path d="M0,172v-172h172v172z" fill="none"></path><g fill="#333333"><path d="M86,21.5c-35.56738,0 -64.5,28.93262 -64.5,64.5c0,35.56739 28.93262,64.5 64.5,64.5c35.56739,0 64.5,-28.93261 64.5,-64.5c0,-35.56738 -28.93261,-64.5 -64.5,-64.5zM86,32.25c29.75146,0 53.75,23.99854 53.75,53.75c0,29.75146 -23.99854,53.75 -53.75,53.75c-29.75146,0 -53.75,-23.99854 -53.75,-53.75c0,-29.75146 23.99854,-53.75 53.75,-53.75zM77.60156,43l-1.51172,2.35156c0,0 -4.09424,6.31982 -8.23047,13.60547c-2.05761,3.65332 -4.09424,7.62158 -5.71094,11.25391c-1.6167,3.63232 -3.02344,6.61377 -3.02344,10.41406v26.875c0,8.83935 7.28565,16.125 16.125,16.125h26.875c4.43018,0 8.35645,-2.22558 10.75,-5.03906c2.39356,-2.81347 3.80029,-6.00488 5.03906,-9.07031c1.70068,-4.24121 2.79248,-10.72901 3.86328,-16.79687c1.0708,-6.06787 1.84766,-11.25391 1.84766,-11.25391v-0.83984c0,-8.83935 -7.28565,-16.125 -16.125,-16.125h-19.48437l3.02344,-9.07031h-0.16797c0.88184,-2.26758 1.32276,-5.12305 0.16797,-7.39062c-1.21777,-2.41455 -3.31738,-3.42236 -4.87109,-4.03125c-3.08643,-1.19678 -5.71094,-1.00781 -5.71094,-1.00781zM76.25781,66.34766l-0.67187,1.84766l-2.35156,7.05469h34.26563c2.89746,0 5.08106,2.33057 5.20703,5.20703c0,0 0,0.14697 0,0.16797h-10.58203v10.75h8.90234c-0.31494,1.78467 -0.62988,3.59033 -1.00781,5.375h-7.89453v10.75h4.87109c-0.75586,1.76367 -1.51172,3.2544 -2.18359,4.03125c-0.92383,1.0918 -1.19678,1.34375 -2.6875,1.34375h-26.875c-2.98144,0 -5.375,-2.39355 -5.375,-5.375v-26.875c0,0 0.60889,-2.91846 2.01563,-6.04687c1.13379,-2.51953 2.81348,-5.39599 4.36719,-8.23047z"></path></g></g></svg>