<svg xmlns="http://www.w3.org/2000/svg" x="0px" y="0px"
    width="20" height="20"
    viewBox="0 0 172 172"
    style=" fill:#000000;"><g fill="none" fill-rule="nonzero" stroke="none" stroke-width="1" stroke-linecap="butt" stroke-linejoin="miter" stroke-miterlimit="10" stroke-dasharray="" stroke-dashoffset="0" font-family="none" font-weight="none" font-size="none" text-anchor="none" style="mix-blend-mode: normal"><path d="M0,172v-172h172v172z" fill="none"></path><g fill="#333333"><path d="M96.75,21.5c-19.69433,0 -34.64355,4.64014 -44.67969,14.10938c-10.03613,9.46924 -14.44531,23.28467 -14.44531,39.64063v4.87109c-3.08643,2.91846 -5.375,6.67676 -5.375,11.25391c0,6.76074 4.78711,11.58984 10.75,13.94141c1.99463,6.27783 4.15723,12.8706 6.55078,18.47656c2.62451,6.13086 4.97607,11.00195 8.23047,14.44531c15.43213,16.31396 41.00537,16.31396 56.4375,0c3.2544,-3.44336 5.43799,-8.31445 8.0625,-14.44531c2.39356,-5.60596 4.72412,-12.19873 6.71875,-18.47656c5.96289,-2.35156 10.75,-7.18066 10.75,-13.94141c0,-4.55615 -2.30957,-8.31445 -5.375,-11.25391v-4.87109c0,-15.18018 -3.46435,-25.99316 -9.57422,-33.08984c-5.18604,-6.02588 -12.11474,-8.48242 -18.98047,-9.23828l-5.71094,-11.42187zM93.55859,32.58594l3.69531,7.39063c1.78467,3.59033 2.49854,6.13086 2.51953,7.22266c0.02099,1.0918 0.06299,0.65088 -0.16797,0.83984c-0.46191,0.39893 -4.99707,1.55371 -10.58203,1.84766c-5.58496,0.29395 -12.17773,0.14697 -18.30859,2.51953c-6.13086,2.37256 -11.52685,8.75537 -11.58984,17.46875h10.75c0.04199,-5.29102 1.28076,-6.06787 4.70313,-7.39062c3.42236,-1.32276 9.34326,-1.72168 15.11719,-2.01562c5.77393,-0.29394 11.73682,0.06299 16.79688,-4.19922c2.51953,-2.1206 4.13623,-5.79492 4.03125,-9.40625c-0.02099,-0.79785 -0.20996,-1.55371 -0.33594,-2.35156c2.33057,0.98682 4.49317,2.49854 6.38281,4.70313c3.90528,4.53516 7.05469,12.49268 7.05469,26.03516v9.91016l2.6875,1.51172c1.6377,0.94482 2.6875,2.66651 2.6875,4.70313c0,2.87646 -2.05761,5.14404 -4.87109,5.375l-3.69531,0.16797l-1.00781,3.52734c-1.99463,6.4668 -4.47217,13.29053 -6.88672,18.98047c-2.41455,5.68994 -5.18604,10.51904 -6.04687,11.42188c-11.44287,12.09375 -29.54151,12.09375 -40.98437,0c-0.86084,-0.90283 -3.63232,-5.73193 -6.04687,-11.42187c-2.41455,-5.68994 -4.89209,-12.51367 -6.88672,-18.98047l-1.00781,-3.52734l-3.69531,-0.16797c-2.81347,-0.23096 -4.87109,-2.49854 -4.87109,-5.375c0,-2.01562 1.02881,-3.7583 2.6875,-4.70312l2.6875,-1.51172v-9.91016c0,-14.4873 3.67432,-24.92236 11.08594,-31.91406c6.88672,-6.50879 18.11963,-10.2041 34.09766,-10.75zM69.875,86c-2.96045,0 -5.375,2.41455 -5.375,5.375c0,2.96045 2.41455,5.375 5.375,5.375c2.96045,0 5.375,-2.41455 5.375,-5.375c0,-2.96045 -2.41455,-5.375 -5.375,-5.375zM102.125,86c-2.96045,0 -5.375,2.41455 -5.375,5.375c0,2.96045 2.41455,5.375 5.375,5.375c2.96045,0 5.375,-2.41455 5.375,-5.375c0,-2.96045 -2.41455,-5.375 -5.375,-5.375z"></path></g></g>
</svg>