<svg xmlns="http://www.w3.org/2000/svg" x="0px" y="0px"
width="32" height="32"
viewBox="0 0 172 172"
style=" fill:#000000;"><g fill="none" fill-rule="nonzero" stroke="none" stroke-width="1" stroke-linecap="butt" stroke-linejoin="miter" stroke-miterlimit="10" stroke-dasharray="" stroke-dashoffset="0" font-family="none" font-weight="none" font-size="none" text-anchor="none" style="mix-blend-mode: normal"><path d="M0,172v-172h172v172z" fill="none"></path><g fill="#333333"><path d="M32.25,16.125v37.82446c3.1175,-2.35962 6.72413,-4.11733 10.75,-4.92358v-22.15088h53.75v32.25h32.25v59.125h10.75v-66.72559l-35.39942,-35.39941zM107.5,34.47559l13.89942,13.89941h-13.89942zM48.47998,59.22998c-8.769,0 -16.02002,7.25102 -16.02002,16.02002v55.27222l16.02002,24.03003l16.02002,-24.03003v-1.6272v-53.64502c0,-8.769 -7.25102,-16.02002 -16.02002,-16.02002zM75.25,69.875v10.75h37.625v-10.75zM48.47998,69.97998c3.38925,0 5.27002,1.88077 5.27002,5.27002v52.01782l-5.27002,7.90503l-5.27002,-7.90503v-52.01782c0,-3.38925 1.88077,-5.27002 5.27002,-5.27002zM75.25,91.375v10.75h37.625v-10.75zM75.25,112.875v10.75h37.625v-10.75zM130.15479,125.66162c0,0 -4.08282,5.15304 -9.28028,10.24609c-2.59873,2.54652 -5.4657,5.05494 -8.02051,6.78174c-2.5548,1.7268 -4.83859,2.43555 -5.35401,2.43555c0,-1.34375 0.32036,-3.83417 -1.57471,-6.67676c-1.89506,-2.84258 -5.59196,-4.07324 -9.17529,-4.07324c-6.36716,0 -12.67774,3.09266 -18.63403,5.87891c-5.9563,2.78624 -10.87597,5.56396 -10.87597,5.56396l5.27002,9.36426c0,0 4.628,-2.59728 10.16211,-5.18604c5.53411,-2.58876 12.65666,-4.87109 14.07788,-4.87109c0,1.34375 -0.32035,3.83417 1.57471,6.67676c1.89506,2.84258 5.59196,4.07324 9.17529,4.07324c4.41883,0 7.95995,-1.97875 11.36938,-4.2832c3.40944,-2.30445 6.64577,-5.17103 9.53223,-7.99951c5.77292,-5.65695 10.1936,-11.25391 10.1936,-11.25391z"></path></g></g></svg>