<svg xmlns="http://www.w3.org/2000/svg" x="0px" y="0px" width="32" height="32" viewBox="0 0 172 172" style=" fill:#000000;">
    <g fill="none" fill-rule="nonzero" stroke="none" stroke-width="1" stroke-linecap="butt" stroke-linejoin="miter" stroke-miterlimit="10" stroke-dasharray="" stroke-dashoffset="0" font-family="none" font-weight="none" font-size="none" text-anchor="none" style="mix-blend-mode: normal"><path d="M0,172v-172h172v172z" fill="none"></path><g fill="#666666"><path d="M21.5,32.25v32.25h-16.125v75.25h161.25v-75.25h-16.125v-32.25h-10.75v32.25h-10.75v-32.25h-21.5v32.25h-10.75v-32.25h-10.75v32.25h-10.75v-32.25h-32.25v32.25h-10.75v-32.25zM16.125,75.25h139.75v53.75h-139.75zM21.5,80.625v37.625h10.75v-37.625zM43,80.625v37.625h32.25v-37.625zM86,80.625v37.625h10.75v-37.625zM107.5,80.625v37.625h21.5v-37.625zM139.75,80.625v37.625h10.75v-37.625z"></path></g></g>
</svg>