<svg xmlns="http://www.w3.org/2000/svg" x="0px" y="0px"
width="32" height="32"
viewBox="0 0 172 172"
style="fill:#000000;"><g fill="none" fill-rule="nonzero" stroke="none" stroke-width="1" stroke-linecap="butt" stroke-linejoin="miter" stroke-miterlimit="10" stroke-dasharray="" stroke-dashoffset="0" font-family="none" font-weight="none" font-size="none" text-anchor="none" style="mix-blend-mode: normal"><path d="M0,172v-172h172v172z" fill="none"></path><g fill="#ffffff"><path d="M86,21.5c-17.7417,0 -32.25,14.5083 -32.25,32.25c0,10.41406 5.06006,19.63135 12.76563,25.53125c-8.65039,3.7793 -15.81006,10.1831 -20.99609,18.14063c-4.55615,1.55371 -7.99951,6.02588 -7.22266,11.25391h-0.16797l1.34375,10.07813c-7.13867,1.65869 -12.59766,8.02051 -12.59766,15.62109c0,8.83935 7.28565,16.125 16.125,16.125h86c8.83935,0 16.125,-7.28565 16.125,-16.125c0,-7.85254 -5.79492,-14.40332 -13.26953,-15.78906l1.34375,-9.74219c0,-0.06299 0,-0.10498 0,-0.16797c0.73486,-4.91308 -2.24658,-9.1123 -6.38281,-10.91797c-5.18604,-7.89453 -12.51367,-14.38232 -21.33203,-18.30859c7.74756,-5.8999 12.76563,-15.24316 12.76563,-25.69922c0,-17.7417 -14.5083,-32.25 -32.25,-32.25zM86,32.25c11.94678,0 21.5,9.55322 21.5,21.5c0,11.94678 -9.55322,21.5 -21.5,21.5c-11.94678,0 -21.5,-9.55322 -21.5,-21.5c0,-11.94678 9.55322,-21.5 21.5,-21.5zM86,86c10.16211,0 19.40039,4.19922 26.20313,10.75h-52.74219c6.82373,-6.78174 16.14599,-10.75 26.53906,-10.75zM48.87891,107.5h73.73828l-4.36719,32.08203v0.16797h-65.00391c0.06299,0 0,-0.14697 0,-0.16797zM112.875,112.875c-2.96045,0 -5.375,2.41455 -5.375,5.375c0,2.96045 2.41455,5.375 5.375,5.375c2.96045,0 5.375,-2.41455 5.375,-5.375c0,-2.96045 -2.41455,-5.375 -5.375,-5.375zM130.51172,129.33594c2.20459,0.67188 3.86328,2.60352 3.86328,5.03906c0,2.98145 -2.39355,5.375 -5.375,5.375zM40.98438,129.50391l1.34375,10.07813c-2.62451,-0.35693 -4.70312,-2.47754 -4.70312,-5.20703c0,-2.22558 1.42773,-4.05224 3.35938,-4.87109z"></path></g></g></svg>