<svg xmlns="http://www.w3.org/2000/svg" x="0px" y="0px"
width="32" height="32"
viewBox="0 0 172 172"
style=" fill:#000000;"><g fill="none" fill-rule="nonzero" stroke="none" stroke-width="1" stroke-linecap="butt" stroke-linejoin="miter" stroke-miterlimit="10" stroke-dasharray="" stroke-dashoffset="0" font-family="none" font-weight="none" font-size="none" text-anchor="none" style="mix-blend-mode: normal"><path d="M0,172v-172h172v172z" fill="none"></path><g fill="#ecf0f1"><path d="M21.5,32.25v10.75h118.25v86h-75.25v10.75h96.75v-10.75h-10.75v-96.75zM43.0105,48.375c-11.81792,0 -21.5105,9.68933 -21.5105,21.5c0,11.81792 9.6969,21.5 21.5105,21.5c11.7991,0 21.4895,-9.68208 21.4895,-21.5c0,-11.81067 -9.68607,-21.5 -21.4895,-21.5zM75.25,53.75v10.75h26.875v-10.75zM112.875,53.75v10.75h16.125v-10.75zM43.0105,59.125c5.98782,0 10.7395,4.74792 10.7395,10.75c0,6.01633 -4.74735,10.75 -10.7395,10.75c-6.02065,0 -10.7605,-4.73367 -10.7605,-10.75c0,-6.00208 4.74417,-10.75 10.7605,-10.75zM75.25,75.25v10.75h53.75v-10.75zM21.5,96.75v43h10.75v-32.25h16.125v32.25h10.75v-28.71216l11.09643,5.86841c3.14061,1.6671 6.91835,1.66045 10.05713,0v0.0105l18.98047,-10.03613l-5.01807,-9.51123l-18.98047,10.03614l-16.6394,-8.78687c-2.31755,-1.2234 -4.906,-1.86865 -7.5376,-1.86865z"></path></g></g></svg>