<svg xmlns="http://www.w3.org/2000/svg" x="0px" y="0px"
    width="20" height="20"
    viewBox="0 0 172 172"
    style=" fill:#000000;"><g fill="none" fill-rule="nonzero" stroke="none" stroke-width="1" stroke-linecap="butt" stroke-linejoin="miter" stroke-miterlimit="10" stroke-dasharray="" stroke-dashoffset="0" font-family="none" font-weight="none" font-size="none" text-anchor="none" style="mix-blend-mode: normal"><path d="M0,172v-172h172v172z" fill="none"></path><g fill="#ecf0f1"><path d="M48.375,21.5v61.64453c-9.40625,6.82087 -16.125,17.23897 -16.125,29.73047c0,20.72063 16.90437,37.625 37.625,37.625c20.72062,0 37.625,-16.90437 37.625,-37.625c0,-12.4915 -6.71875,-22.90959 -16.125,-29.73047v-7.89453h10.75v-10.75h-10.75v-10.75h10.75v-10.75h-10.75v-10.75h10.75v-10.75zM131.6875,21.5c-10.37375,0 -18.8125,8.43875 -18.8125,18.8125c0,10.37375 8.43875,18.8125 18.8125,18.8125c10.37375,0 18.8125,-8.43875 18.8125,-18.8125c0,-10.37375 -8.43875,-18.8125 -18.8125,-18.8125zM59.125,32.25h21.5v55.93359l2.6875,1.51172c8.041,4.6655 13.4375,13.22519 13.4375,23.17969c0,14.90488 -11.97012,26.875 -26.875,26.875c-14.90487,0 -26.875,-11.97012 -26.875,-26.875c0,-9.9545 5.3965,-18.51419 13.4375,-23.17969l2.6875,-1.51172zM131.6875,32.25c4.44513,0 8.0625,3.61738 8.0625,8.0625c0,4.44512 -3.61737,8.0625 -8.0625,8.0625c-4.44513,0 -8.0625,-3.61738 -8.0625,-8.0625c0,-4.44512 3.61737,-8.0625 8.0625,-8.0625zM64.5,43v54.75781c-6.235,2.22525 -10.75,8.13481 -10.75,15.12768c0,8.901 7.224,16.125 16.125,16.125c8.901,0 16.125,-7.224 16.125,-16.125c0,-6.99288 -4.515,-12.89706 -10.75,-15.12768v-54.75781z"></path></g></g>
</svg>