<svg xmlns="http://www.w3.org/2000/svg" x="0px" y="0px"
width="32" height="32"
viewBox="0 0 172 172"
style=" fill:#000000;"><g fill="none" fill-rule="nonzero" stroke="none" stroke-width="1" stroke-linecap="butt" stroke-linejoin="miter" stroke-miterlimit="10" stroke-dasharray="" stroke-dashoffset="0" font-family="none" font-weight="none" font-size="none" text-anchor="none" style="mix-blend-mode: normal"><path d="M0,172v-172h172v172z" fill="none"></path><g fill="#ecf0f1"><path d="M59.125,21.5c-11.81067,0 -21.5,9.68933 -21.5,21.5c0,6.19196 2.74538,11.6963 6.9812,15.63159c-7.25787,4.82577 -12.3562,12.67539 -12.3562,21.99341v5.375h-10.75v10.75h75.25v14.06739l10.75,5.375v34.30761h32.25v-34.30761l10.75,-5.375v-30.19239c0,-9.31801 -5.09834,-17.16764 -12.3562,-21.99341c4.23582,-3.93529 6.9812,-9.43963 6.9812,-15.63159c0,-11.81067 -9.68933,-21.5 -21.5,-21.5c-11.81067,0 -21.5,9.68933 -21.5,21.5c0,6.19196 2.74538,11.6963 6.9812,15.63159c-7.25786,4.82577 -12.3562,12.67539 -12.3562,21.99341v5.375h-10.75v-5.375c0,-9.31801 -5.09834,-17.16764 -12.3562,-21.99341c4.23582,-3.93529 6.9812,-9.43963 6.9812,-15.63159c0,-11.81067 -9.68933,-21.5 -21.5,-21.5zM59.125,32.25c6.00208,0 10.75,4.74792 10.75,10.75c0,6.00208 -4.74792,10.75 -10.75,10.75c-6.00208,0 -10.75,-4.74792 -10.75,-10.75c0,-6.00208 4.74792,-10.75 10.75,-10.75zM123.625,32.25c6.00208,0 10.75,4.74792 10.75,10.75c0,6.00208 -4.74792,10.75 -10.75,10.75c-6.00208,0 -10.75,-4.74792 -10.75,-10.75c0,-6.00208 4.74792,-10.75 10.75,-10.75zM59.125,64.5c8.9681,0 16.125,7.1569 16.125,16.125v5.375h-32.25v-5.375c0,-8.9681 7.1569,-16.125 16.125,-16.125zM123.625,64.5c8.9681,0 16.125,7.1569 16.125,16.125v23.55761l-10.75,5.375v30.19239h-10.75v-30.19239l-10.75,-5.375v-23.55761c0,-8.9681 7.1569,-16.125 16.125,-16.125zM53.75,107.5v5.375h-16.125v5.375v32.25h53.75v-37.625h-16.125v-5.375zM48.375,123.625h5.375h21.5h5.375v16.125h-32.25z"></path></g></g></svg>