<svg xmlns="http://www.w3.org/2000/svg" x="0px" y="0px"
    width="20" height="20"
    viewBox="0 0 172 172"
    style=" fill:#000000;"><g fill="none" fill-rule="nonzero" stroke="none" stroke-width="1" stroke-linecap="butt" stroke-linejoin="miter" stroke-miterlimit="10" stroke-dasharray="" stroke-dashoffset="0" font-family="none" font-weight="none" font-size="none" text-anchor="none" style="mix-blend-mode: normal"><path d="M0,172v-172h172v172z" fill="none"></path><g fill="#333333"><path d="M48.375,26.875v5.375h-21.5v5.375v112.875h118.25v-118.25h-21.5v-5.375h-10.75v5.375h-53.75v-5.375zM37.625,43h10.75v5.375h10.75v-5.375h53.75v5.375h10.75v-5.375h10.75v10.75h-96.75zM37.625,64.5h96.75v75.25h-96.75zM48.375,80.625v16.125h10.75v-16.125zM76.78271,80.625l-1.5957,2.35156c0,0 -2.36851,3.02344 -5.31201,3.02344v10.75c2.35335,0 3.58964,-1.2183 5.375,-1.96313v28.83813h10.75v-43zM110.1875,80.625c-7.35871,0 -13.4375,6.07879 -13.4375,13.4375c0,3.12981 1.53982,5.76498 3.36987,8.0625c-1.83005,2.29752 -3.36987,4.93269 -3.36987,8.0625c0,7.35871 6.07879,13.4375 13.4375,13.4375c7.35871,0 13.4375,-6.07879 13.4375,-13.4375c0,-3.12981 -1.53982,-5.76498 -3.36987,-8.0625c1.83005,-2.29752 3.36987,-4.93269 3.36987,-8.0625c0,-7.35871 -6.07879,-13.4375 -13.4375,-13.4375zM110.1875,91.375c1.54229,0 2.6875,1.14521 2.6875,2.6875c0,1.54229 -1.14521,2.6875 -2.6875,2.6875c-1.54229,0 -2.6875,-1.14521 -2.6875,-2.6875c0,-1.54229 1.14521,-2.6875 2.6875,-2.6875zM110.1875,107.5c1.54229,0 2.6875,1.14521 2.6875,2.6875c0,1.54229 -1.14521,2.6875 -2.6875,2.6875c-1.54229,0 -2.6875,-1.14521 -2.6875,-2.6875c0,-1.54229 1.14521,-2.6875 2.6875,-2.6875z"></path></g></g>
</svg>