<svg xmlns="http://www.w3.org/2000/svg" x="0px" y="0px"
width="20" height="20"
viewBox="0 0 172 172"
style=" fill:#000000;"><g fill="none" fill-rule="nonzero" stroke="none" stroke-width="1" stroke-linecap="butt" stroke-linejoin="miter" stroke-miterlimit="10" stroke-dasharray="" stroke-dashoffset="0" font-family="none" font-weight="none" font-size="none" text-anchor="none" style="mix-blend-mode: normal"><path d="M0,172v-172h172v172z" fill="none"></path><g fill="#333333"><path d="M129,150.5h-86c-11.87517,0 -21.5,-9.62483 -21.5,-21.5v-86h129v86c0,11.87517 -9.62483,21.5 -21.5,21.5z" opacity="0.35"></path><path d="M129,21.5h-86c-11.87517,0 -21.5,9.62483 -21.5,21.5v7.16667h129v-7.16667c0,-11.87517 -9.62483,-21.5 -21.5,-21.5z"></path><path d="M87.032,86.24367c0,8.686 -5.92683,13.49483 -16.512,26.015h11.10117c2.6445,0 4.78733,2.14283 4.78733,4.78733v0c0,2.6445 -2.14283,4.78733 -4.78733,4.78733h-17.09967c-3.97033,0 -7.18817,-3.21783 -7.18817,-7.18817v0c0,-1.72 0.61633,-3.38983 1.73433,-4.687c12.169,-14.1255 17.06383,-18.189 17.06383,-23.57833c0,-1.42617 -0.29383,-5.203 -4.15667,-5.203c-2.20733,0 -3.44,1.40467 -4.128,2.99567c-0.86717,2.01383 -2.98133,3.182 -5.16,2.98133v0c-3.4615,-0.3225 -5.74767,-3.956 -4.30717,-7.1165c1.94933,-4.29283 5.90533,-8.37067 13.93917,-8.37067c11.76767,0 14.71317,8.80783 14.71317,14.577z"></path><path d="M126.75683,97.19433c0,2.7735 0.48733,25.52767 -16.11783,25.52767c-16.60517,0 -16.05333,-22.76133 -16.05333,-25.52767c0,-2.76633 -0.3225,-25.52767 16.05333,-25.52767c16.37583,0 16.11783,22.76133 16.11783,25.52767zM115.6915,97.19433c0,-1.6125 0.387,-15.77383 -5.0525,-15.77383c-5.4395,0 -5.04533,14.16133 -5.04533,15.77383c0,1.66267 -0.15767,15.77383 5.04533,15.77383c5.21017,0.00717 5.0525,-14.11117 5.0525,-15.77383z"></path><path d="M44.71283,91.375c-2.967,0 -5.375,-2.408 -5.375,-5.375v-8.95833c0,-2.967 2.408,-5.375 5.375,-5.375c2.967,0 5.375,2.408 5.375,5.375v8.95833c0,2.967 -2.408,5.375 -5.375,5.375z"></path></g></g></svg>