<svg xmlns="http://www.w3.org/2000/svg" x="0px" y="0px"
width="32" height="32"
viewBox="0 0 172 172"
style=" fill:#000000;"><g fill="none" fill-rule="nonzero" stroke="none" stroke-width="1" stroke-linecap="butt" stroke-linejoin="miter" stroke-miterlimit="10" stroke-dasharray="" stroke-dashoffset="0" font-family="none" font-weight="none" font-size="none" text-anchor="none" style="mix-blend-mode: normal"><path d="M0,172v-172h172v172z" fill="none"></path><g fill="#ecf0f1"><path d="M86,21.5c-20.72315,0 -37.625,16.90185 -37.625,37.625c0,12.78662 6.50879,24.10352 16.29297,30.90625c-22.0669,8.6084 -37.79297,30.1084 -37.79297,55.09375h10.75c0,-23.6416 17.15381,-43.39893 39.64063,-47.53516l3.35938,9.91016h10.75l3.35938,-9.91016c22.48682,4.13623 39.64063,23.89356 39.64063,47.53516h10.75c0,-24.98535 -15.72607,-46.48535 -37.79297,-55.09375c9.78418,-6.80273 16.29297,-18.11963 16.29297,-30.90625c0,-20.72315 -16.90185,-37.625 -37.625,-37.625zM86,32.25c14.90723,0 26.875,11.96778 26.875,26.875c0,14.90723 -11.96777,26.875 -26.875,26.875c-14.90722,0 -26.875,-11.96777 -26.875,-26.875c0,-14.90722 11.96778,-26.875 26.875,-26.875zM80.625,112.875l-5.375,32.25h21.5l-5.375,-32.25z"></path></g></g></svg>