<svg xmlns="http://www.w3.org/2000/svg" x="0px" y="0px"
    width="20" height="20"
    viewBox="0 0 172 172"
    style=" fill:#000000;"><g fill="none" fill-rule="nonzero" stroke="none" stroke-width="1" stroke-linecap="butt" stroke-linejoin="miter" stroke-miterlimit="10" stroke-dasharray="" stroke-dashoffset="0" font-family="none" font-weight="none" font-size="none" text-anchor="none" style="mix-blend-mode: normal"><path d="M0,172v-172h172v172z" fill="none"></path><g fill="#333333"><path d="M97.42188,21.5c-17.76269,0 -38.50683,2.93945 -54.58984,19.14844c-16.08301,16.20898 -26.70703,44.6377 -26.70703,93.72656v5.375h51.90234c5.31201,3.35938 11.2959,5.375 17.97266,5.375c6.65576,0 12.66065,-2.05761 17.97266,-5.375h51.90234v-5.375c0,-43.67187 -8.44043,-69.03516 -19.48437,-83.81641c-9.72119,-13.01758 -20.91211,-16.62891 -29.22656,-17.46875l-5.03906,-8.90234l-1.51172,-2.6875zM94.39844,32.58594l4.36719,7.72656l1.51172,2.6875h3.19141c5.43799,0 15.30615,1.82666 24.35547,13.94141c8.6084,11.52685 16.22998,33.53076 16.96484,72.05859h-28.89062c0.58789,-0.75586 1.13379,-1.57471 1.67969,-2.35156c7.30664,-10.41406 11.42188,-23.41065 11.42188,-35.27344h-10.75c0,9.25928 -3.46435,20.57617 -9.40625,29.05859c-5.9419,8.48242 -13.89941,13.94141 -22.84375,13.94141c-8.94433,0 -16.90185,-5.43799 -22.84375,-13.94141c-5.9419,-8.50342 -9.40625,-19.8623 -9.40625,-29.05859c0,-2.39355 0.46192,-3.59033 1.17578,-4.53516c0.71387,-0.94482 1.97364,-1.76367 3.86328,-2.51953c3.80029,-1.49072 10.2041,-2.1206 16.96484,-2.6875c6.76074,-0.5669 13.81543,-1.11279 20.15625,-4.03125c6.34082,-2.91846 11.58984,-9.55322 11.58984,-18.47656h-10.75c0,5.60596 -1.46972,7.0127 -5.20703,8.73438c-3.7373,1.72168 -10.12011,2.45654 -16.79687,3.02344c-6.67676,0.5669 -13.71045,0.88184 -19.98828,3.35938c-3.14941,1.23877 -6.17285,3.10742 -8.39844,6.04688c-2.22558,2.93945 -3.35937,6.86572 -3.35937,11.08594c0,11.8208 4.13623,24.67041 11.42188,35.10547c0.58789,0.83984 1.19678,1.70068 1.84766,2.51953h-29.05859c0.81885,-43.73486 10.45606,-67.98535 23.17969,-80.79297c12.47168,-12.57666 28.34473,-15.30615 44.00781,-15.62109zM69.875,91.375c-2.96045,0 -5.375,2.41455 -5.375,5.375c0,2.96045 2.41455,5.375 5.375,5.375c2.96045,0 5.375,-2.41455 5.375,-5.375c0,-2.96045 -2.41455,-5.375 -5.375,-5.375zM102.125,91.375c-2.96045,0 -5.375,2.41455 -5.375,5.375c0,2.96045 2.41455,5.375 5.375,5.375c2.96045,0 5.375,-2.41455 5.375,-5.375c0,-2.96045 -2.41455,-5.375 -5.375,-5.375z"></path></g></g>
</svg>