<svg xmlns="http://www.w3.org/2000/svg" x="0px" y="0px"
width="26" height="26"
viewBox="0 0 172 172"
style=" fill:#000000;"><g fill="none" fill-rule="nonzero" stroke="none" stroke-width="1" stroke-linecap="butt" stroke-linejoin="miter" stroke-miterlimit="10" stroke-dasharray="" stroke-dashoffset="0" font-family="none" font-weight="none" font-size="none" text-anchor="none" style="mix-blend-mode: normal"><path d="M0,172v-172h172v172z" fill="none"></path><g fill="#333333"><path d="M86,16.125c-20.66016,0 -37.625,16.96484 -37.625,37.625v15.45313c-9.93115,9.76318 -16.125,23.32666 -16.125,38.29688c0,29.62549 24.12451,53.75 53.75,53.75c29.62549,0 53.75,-24.12451 53.75,-53.75c0,-14.97021 -6.19385,-28.53369 -16.125,-38.29687v-15.45312c0,-20.66016 -16.96484,-37.625 -37.625,-37.625zM86,26.875c14.80224,0 26.875,12.07276 26.875,26.875v7.39063c-7.93652,-4.61914 -17.06982,-7.39062 -26.875,-7.39062c-9.80518,0 -18.93847,2.77148 -26.875,7.39063v-7.39062c0,-14.80224 12.07276,-26.875 26.875,-26.875zM86,64.5c23.80957,0 43,19.19043 43,43c0,23.80957 -19.19043,43 -43,43c-23.80957,0 -43,-19.19043 -43,-43c0,-23.80957 19.19043,-43 43,-43zM86,96.75c-5.9419,0 -10.75,4.8081 -10.75,10.75c0,3.96826 2.1626,7.36963 5.375,9.23828v17.63672h10.75v-17.63672c3.2124,-1.86865 5.375,-5.27002 5.375,-9.23828c0,-5.9419 -4.8081,-10.75 -10.75,-10.75z"></path></g></g>
</svg>