<svg xmlns="http://www.w3.org/2000/svg" x="0px" y="0px"
width="32" height="32"
viewBox="0 0 172 172"
style=" fill:#000000;"><g fill="none" fill-rule="nonzero" stroke="none" stroke-width="1" stroke-linecap="butt" stroke-linejoin="miter" stroke-miterlimit="10" stroke-dasharray="" stroke-dashoffset="0" font-family="none" font-weight="none" font-size="none" text-anchor="none" style="mix-blend-mode: normal"><path d="M0,172v-172h172v172z" fill="none"></path><g fill="#ffffff"><path d="M86,26.875c-20.72315,0 -37.625,16.90185 -37.625,37.625c0,12.95459 6.61377,24.46045 16.62891,31.24219c-19.16943,8.23047 -32.75391,27.25293 -32.75391,49.38281h10.75c0,-15.53711 8.20947,-29.05859 20.49219,-36.61719c3.61133,8.86035 12.40869,15.11719 22.50781,15.11719c10.09912,0 18.89648,-6.25683 22.50781,-15.11719c12.28271,7.55859 20.49219,21.08008 20.49219,36.61719h10.75c0,-22.12988 -13.58447,-41.15234 -32.75391,-49.38281c10.01514,-6.78174 16.62891,-18.2876 16.62891,-31.24219c0,-20.72315 -16.90185,-37.625 -37.625,-37.625zM86,37.625c14.90723,0 26.875,11.96778 26.875,26.875c0,14.90723 -11.96777,26.875 -26.875,26.875c-14.90722,0 -26.875,-11.96777 -26.875,-26.875c0,-14.90722 11.96778,-26.875 26.875,-26.875zM86,102.125c4.40918,0 8.6084,0.62989 12.59766,1.84766c-1.86865,5.18604 -6.73974,8.90234 -12.59766,8.90234c-5.85791,0 -10.72901,-3.71631 -12.59766,-8.90234c3.98926,-1.21777 8.18848,-1.84766 12.59766,-1.84766z"></path></g></g></svg>