<svg xmlns="http://www.w3.org/2000/svg" x="0px" y="0px"
    width="20" height="20"
    viewBox="0 0 172 172"
    style=" fill:#000000;"><g fill="none" fill-rule="nonzero" stroke="none" stroke-width="1" stroke-linecap="butt" stroke-linejoin="miter" stroke-miterlimit="10" stroke-dasharray="" stroke-dashoffset="0" font-family="none" font-weight="none" font-size="none" text-anchor="none" style="mix-blend-mode: normal"><path d="M0,172v-172h172v172z" fill="none"></path><g fill="#333333"><path d="M164.83333,167.75733l-16.54783,-35.33883c5.66167,-3.87717 9.38117,-10.37733 9.38117,-17.75183v-71.66667c0,-11.87517 -9.62483,-21.5 -21.5,-21.5h-100.33333c-11.87517,0 -21.5,9.62483 -21.5,21.5v71.66667c0,11.87517 9.62483,21.5 21.5,21.5h71.66667v31.59067z" opacity="0.35"></path><circle cx="8" cy="9" transform="scale(7.16667,7.16667)" r="2"></circle><path d="M75.25,107.5h-35.83333c-5.934,0 -10.75,-4.816 -10.75,-10.75v0c0,-5.934 4.816,-10.75 10.75,-10.75h35.83333c5.934,0 10.75,4.816 10.75,10.75v0c0,5.934 -4.816,10.75 -10.75,10.75z"></path><path d="M136.16667,57.33333h-28.66667c-3.956,0 -7.16667,-3.21067 -7.16667,-7.16667v0c0,-3.956 3.21067,-7.16667 7.16667,-7.16667h28.66667c3.956,0 7.16667,3.21067 7.16667,7.16667v0c0,3.956 -3.21067,7.16667 -7.16667,7.16667z"></path><path d="M136.16667,86h-28.66667c-3.956,0 -7.16667,-3.21067 -7.16667,-7.16667v0c0,-3.956 3.21067,-7.16667 7.16667,-7.16667h28.66667c3.956,0 7.16667,3.21067 7.16667,7.16667v0c0,3.956 -3.21067,7.16667 -7.16667,7.16667z"></path><path d="M135.106,103.7805l35.20267,57.26167c2.93833,4.773 -0.50167,10.922 -6.106,10.922h-70.39817c-5.60433,0 -9.03717,-6.14183 -6.106,-10.922l35.20267,-57.26167c2.78783,-4.55083 9.40983,-4.55083 12.20483,0zM128.96417,150.7365c-5.31767,0 -6.536,5.15283 -6.536,7.0735c0,1.96367 1.075,6.9875 6.536,6.9875c5.461,0 6.6005,-5.02383 6.6005,-6.9875c0.00717,-1.92067 -1.28283,-7.0735 -6.6005,-7.0735zM129,145.36867v0c3.32533,0 6.02,-2.69467 6.02,-6.02v-17.08533c0,-3.32533 -2.69467,-6.02 -6.02,-6.02v0c-3.32533,0 -6.02,2.69467 -6.02,6.02v17.08533c0,3.32533 2.69467,6.02 6.02,6.02z"></path></g></g>
</svg>